<svg width="400" height="400" viewBox="0 0 400 400" fill="none" xmlns="http://www.w3.org/2000/svg">
<rect width="400" height="400" fill="white"/>
<path d="M59.5068 96.2776C49.2731 103.468 39.3542 111.759 33.4239 122.78C27.4935 133.801 26.339 148.129 33.3189 158.467C42.713 172.27 64.4401 176.993 67.8513 193.367C70.3179 205.07 61.3437 216.249 51.2674 222.756C41.191 229.264 29.4353 233.253 20.776 241.545C7.70826 254.035 4.40196 273.663 5.08421 291.716C5.81894 310.452 11.2245 330.867 26.7588 341.363C46.0193 354.431 72.0498 347.241 93.8818 339.106C123.061 328.243 151.926 316.645 180.79 305.046C244.082 279.646 307.321 254.245 370.613 228.792C377.383 226.063 384.416 223.176 389.296 217.666C398.9 206.802 396.276 188.959 387.092 177.728C377.908 166.497 363.948 160.409 350.251 155.476C336.606 150.543 322.331 146.187 310.995 137.108C299.659 128.029 291.84 112.757 296.195 98.9017C299.869 87.146 311.257 78.959 314.511 67.0983C318.815 51.459 306.849 35.085 291.945 28.7348C277.04 22.3846 113.51 58.229 59.5068 96.2776Z" fill="#F7F7F7" fill-opacity="0.7"/>
<path d="M52.2853 321.002L42.1991 362.022H39.9761L48.5319 320.913L52.2853 321.002Z" fill="#0B4870"/>
<path d="M63.2929 321.002L53.204 362.022H50.981L59.5367 320.913L63.2929 321.002Z" fill="#0B4870"/>
<path d="M81.0957 321.002L91.1846 362.022H93.4062L84.8518 320.913L81.0957 321.002Z" fill="#0B4870"/>
<path d="M90.6439 325.093H47.1723C47.1723 325.093 44.1451 321.336 42.1157 312.587C39.8349 302.747 35.2275 269.884 35.2275 269.884C35.2275 269.884 36.4486 266.826 55.56 267.218L89.7805 310.513C89.7805 310.513 90.9505 321.03 90.6439 325.093Z" fill="#D3D3D3"/>
<path opacity="0.5" d="M384.617 60.3923C384.617 60.3923 386.739 49.0753 378.259 43.4195C369.781 37.761 360.596 39.5273 357.418 43.4195L357.263 43.5824C355.289 39.5098 351.119 36.7014 346.292 36.7014C339.923 36.7014 334.696 41.5898 334.152 47.8246C332.763 47.2726 331.246 46.9697 329.661 46.9697C324.488 46.9697 320.071 50.1941 318.301 54.7419C309.816 54.9735 303.009 61.9338 303.009 70.4815C303.009 79.18 310.053 86.2292 318.739 86.2292C320.392 86.2292 377.202 85.5009 377.202 85.5009C377.202 85.5009 394.156 89.0349 394.156 74.8934C394.156 60.7464 384.617 60.3923 384.617 60.3923Z" fill="#0B4870"/>
<path d="M316.796 140.928H359.354V79.9192H358.351V139.803H316.796V140.928Z" fill="#0B4870"/>
<path d="M355.155 76.7216C355.155 74.6806 356.813 73.0247 358.851 73.0247C360.891 73.0247 362.548 74.6806 362.548 76.7216C362.548 78.7626 360.891 80.424 358.851 80.424C356.813 80.424 355.155 78.7613 355.155 76.7216ZM356.163 76.7216C356.163 78.2093 357.367 79.4142 358.851 79.4142C360.336 79.4142 361.542 78.2093 361.542 76.7216C361.542 75.238 360.337 74.0317 358.851 74.0317C357.369 74.0317 356.163 75.238 356.163 76.7216Z" fill="#0B4870"/>
<path d="M329.261 152.38H371.823V79.9192H370.817V151.042H329.261V152.38Z" fill="#0B4870"/>
<path d="M367.625 76.7216C367.625 74.6806 369.28 73.0247 371.321 73.0247C373.361 73.0247 375.015 74.6806 375.015 76.7216C375.015 78.7626 373.361 80.424 371.321 80.424C369.28 80.424 367.625 78.7613 367.625 76.7216ZM368.631 76.7216C368.631 78.2093 369.837 79.4142 371.321 79.4142C372.805 79.4142 374.01 78.2093 374.01 76.7216C374.01 75.238 372.805 74.0317 371.321 74.0317C369.837 74.0317 368.631 75.238 368.631 76.7216Z" fill="#0B4870"/>
<path d="M338.068 112.858V235.91L336.39 239.999L335.218 238.953C333.868 242.352 332.655 246.567 332.823 250.465C332.907 252.429 333.193 255.114 333.583 258.082L337.771 258.568V259.951L336.905 260.248L334.035 261.23C334.024 261.251 334.024 261.261 334.015 261.282C334.615 265.508 335.342 269.954 335.954 273.493C332.588 273.515 328.844 273.58 325.962 273.633C325.992 271.456 326.045 268.827 326.088 266.089C325.76 266.099 325.392 266.099 325.011 266.099C324.601 266.099 324.179 266.089 323.766 266.078C322.997 266.067 322.269 266.047 321.782 266.025C321.793 266.141 321.813 266.227 321.835 266.288C321.835 266.288 321.412 266.246 320.716 266.161C320.053 271.654 319.355 276.342 319.355 276.342L320.281 276.723C319.799 278.34 319.154 280.514 318.436 282.989H93.366C86.5705 282.989 81.0527 277.464 81.0527 270.651V112.858C81.0527 106.043 86.5719 100.518 93.366 100.518H325.74C332.549 100.518 338.068 106.043 338.068 112.858Z" fill="#0E538C"/>
<path d="M165.25 123.479H113.76C111.929 123.479 110.44 121.992 110.44 120.16V119.737C110.44 117.902 111.927 116.416 113.76 116.416H165.25C167.081 116.416 168.567 117.902 168.567 119.737V120.16C168.567 121.994 167.081 123.479 165.25 123.479Z" fill="#0B4870"/>
<path d="M180.368 144.46H128.881C127.048 144.46 125.561 142.973 125.561 141.138V140.72C125.561 138.885 127.047 137.396 128.881 137.396H180.368C182.201 137.396 183.683 138.883 183.683 140.72V141.138C183.683 142.975 182.202 144.46 180.368 144.46Z" fill="#0B4870"/>
<path d="M311.867 144.46H194.692C192.859 144.46 191.373 142.973 191.373 141.138V140.72C191.373 138.885 192.858 137.396 194.692 137.396H311.867C313.699 137.396 315.185 138.883 315.185 140.72V141.138C315.183 142.975 313.699 144.46 311.867 144.46Z" fill="#357AB8"/>
<path d="M209.559 159.387H128.881C127.048 159.387 125.561 157.901 125.561 156.066V155.646C125.561 153.811 127.047 152.325 128.881 152.325H209.559C211.391 152.325 212.875 153.811 212.875 155.646V156.066C212.875 157.901 211.392 159.387 209.559 159.387Z" fill="#0B4870"/>
<path d="M311.867 159.387H231.189C229.356 159.387 227.872 157.901 227.872 156.066V155.646C227.872 153.811 229.356 152.325 231.189 152.325H311.867C313.699 152.325 315.185 153.811 315.185 155.646V156.066C315.183 157.901 313.699 159.387 311.867 159.387Z" fill="#357AB8"/>
<path d="M234.506 174.312H128.881C127.048 174.312 125.561 172.826 125.561 170.994V170.574C125.561 168.741 127.047 167.252 128.881 167.252H234.506C236.336 167.252 237.823 168.74 237.823 170.574V170.994C237.823 172.826 236.337 174.312 234.506 174.312Z" fill="#0B4870"/>
<path d="M311.654 174.312H263.627C261.678 174.312 260.098 172.735 260.098 170.784C260.098 168.833 261.678 167.252 263.627 167.252H311.654C313.603 167.252 315.183 168.833 315.183 170.784C315.183 172.735 313.604 174.312 311.654 174.312Z" fill="#357AB8"/>
<path d="M113.97 144.465C115.92 144.465 117.5 142.883 117.5 140.931C117.5 138.979 115.92 137.397 113.97 137.397C112.02 137.397 110.44 138.979 110.44 140.931C110.44 142.883 112.02 144.465 113.97 144.465Z" fill="white"/>
<path d="M113.97 159.39C115.92 159.39 117.5 157.808 117.5 155.856C117.5 153.904 115.92 152.322 113.97 152.322C112.02 152.322 110.44 153.904 110.44 155.856C110.44 157.808 112.02 159.39 113.97 159.39Z" fill="white"/>
<path d="M113.97 174.318C115.92 174.318 117.5 172.736 117.5 170.784C117.5 168.832 115.92 167.25 113.97 167.25C112.02 167.25 110.44 168.832 110.44 170.784C110.44 172.736 112.02 174.318 113.97 174.318Z" fill="white"/>
<path d="M207.292 186.545H112.713C111.458 186.545 110.441 185.53 110.441 184.275C110.441 183.02 111.459 182.002 112.713 182.002H207.292C208.543 182.002 209.561 183.02 209.561 184.275C209.559 185.53 208.543 186.545 207.292 186.545Z" fill="#357AB8"/>
<path d="M180.368 219.797H128.881C127.048 219.797 125.561 218.31 125.561 216.476V216.056C125.561 214.224 127.047 212.737 128.881 212.737H180.368C182.201 212.737 183.683 214.224 183.683 216.056V216.476C183.683 218.31 182.202 219.797 180.368 219.797Z" fill="#0B4870"/>
<path d="M233.034 219.797H194.901C192.951 219.797 191.373 218.217 191.373 216.266C191.373 214.315 192.951 212.737 194.901 212.737H233.034C234.983 212.737 236.565 214.315 236.565 216.266C236.565 218.217 234.984 219.797 233.034 219.797Z" fill="#357AB8"/>
<path d="M182.029 234.725H128.881C127.048 234.725 125.561 233.239 125.561 231.404V230.984C125.561 229.151 127.047 227.662 128.881 227.662H182.029C183.859 227.662 185.347 229.15 185.347 230.984V231.404C185.347 233.239 183.859 234.725 182.029 234.725Z" fill="#0B4870"/>
<path d="M311.867 234.725H194.692C192.859 234.725 191.373 233.239 191.373 231.404V230.984C191.373 229.151 192.858 227.662 194.692 227.662H311.867C313.699 227.662 315.185 229.15 315.185 230.984V231.404C315.183 233.239 313.699 234.725 311.867 234.725Z" fill="#357AB8"/>
<path d="M234.506 249.653H128.881C127.048 249.653 125.561 248.165 125.561 246.329V245.909C125.561 244.077 127.047 242.59 128.881 242.59H234.506C236.336 242.59 237.823 244.077 237.823 245.909V246.329C237.823 248.164 236.337 249.653 234.506 249.653Z" fill="#0B4870"/>
<path d="M311.654 249.653H250.724C248.776 249.653 247.197 248.07 247.197 246.119C247.197 244.171 248.776 242.59 250.724 242.59H311.654C313.603 242.59 315.183 244.171 315.183 246.119C315.183 248.07 313.604 249.653 311.654 249.653Z" fill="#357AB8"/>
<path d="M113.97 219.8C115.92 219.8 117.5 218.218 117.5 216.266C117.5 214.314 115.92 212.732 113.97 212.732C112.02 212.732 110.44 214.314 110.44 216.266C110.44 218.218 112.02 219.8 113.97 219.8Z" fill="white"/>
<path d="M113.97 234.725C115.92 234.725 117.5 233.143 117.5 231.191C117.5 229.239 115.92 227.657 113.97 227.657C112.02 227.657 110.44 229.239 110.44 231.191C110.44 233.143 112.02 234.725 113.97 234.725Z" fill="white"/>
<path d="M113.97 249.653C115.92 249.653 117.5 248.071 117.5 246.119C117.5 244.167 115.92 242.585 113.97 242.585C112.02 242.585 110.44 244.167 110.44 246.119C110.44 248.071 112.02 249.653 113.97 249.653Z" fill="white"/>
<path d="M207.292 261.88H112.713C111.458 261.88 110.441 260.865 110.441 259.61C110.441 258.358 111.459 257.343 112.713 257.343H207.292C208.543 257.343 209.561 258.358 209.561 259.61C209.559 260.865 208.543 261.88 207.292 261.88Z" fill="#357AB8"/>
<g opacity="0.5">
<g opacity="0.5">
<path opacity="0.5" d="M40.9931 222.285C43.0103 225.115 46.2124 226.63 49.4561 226.63C51.5312 226.63 53.6345 226.012 55.4527 224.723C60.1098 221.408 61.1911 214.913 57.8895 210.251C54.5732 205.586 48.0844 204.505 43.4272 207.811C38.7701 211.128 37.6902 217.623 40.9931 222.285ZM40.8035 214.809C41.1921 212.5 42.4482 210.478 44.3646 209.124C45.8936 208.025 47.6661 207.507 49.4265 207.507C52.1659 207.507 54.8744 208.777 56.5756 211.185C57.9312 213.091 58.4664 215.416 58.0751 217.724C57.6864 220.033 56.4304 222.055 54.5153 223.412C50.579 226.21 45.1002 225.285 42.3043 221.346C40.9474 219.442 40.4148 217.118 40.8035 214.809ZM31.3641 222.647L28.7955 225.371L34.074 232.804L37.506 231.276C38.6276 232.186 39.8554 232.948 41.1666 233.569L41.2822 237.321L50.2643 238.838L51.6065 235.331C53.0481 235.171 54.4589 234.854 55.8144 234.363L58.5404 236.932L65.9652 231.652L64.4348 228.217C65.3291 227.089 66.1091 225.861 66.7277 224.562L70.4757 224.433L71.9914 215.439L68.4881 214.098C68.3281 212.655 67.9959 211.254 67.5212 209.883L70.0871 207.157L64.81 199.725L61.378 201.253C60.2524 200.346 59.0286 199.579 57.716 198.958L57.6017 195.206L48.621 193.691L47.2788 197.198C45.8372 197.356 44.4372 197.69 43.0682 198.166L40.3436 195.595L32.9201 200.88L34.4478 204.312C33.5549 205.44 32.7749 206.665 32.1549 207.981L28.4069 208.097L26.8926 217.087L30.3972 218.431C30.5545 219.874 30.8867 221.29 31.3641 222.647ZM42.3043 221.346C40.9474 219.442 40.4148 217.117 40.8035 214.809C41.1921 212.502 42.4482 210.478 44.3646 209.124C45.8936 208.025 47.6661 207.507 49.4265 207.507C52.1659 207.507 54.8744 208.777 56.5756 211.185C57.9312 213.091 58.4664 215.416 58.0751 217.724C57.6864 220.033 56.4304 222.055 54.5153 223.412C50.5804 226.211 45.1002 225.285 42.3043 221.346Z" fill="#0B4870"/>
</g>
</g>
<g opacity="0.5">
<g opacity="0.5">
<path opacity="0.5" d="M17.3241 255.359C19.2593 255.85 21.2267 255.332 22.6563 254.125C23.5654 253.358 24.2634 252.303 24.5875 251.06C25.4038 247.876 23.474 244.618 20.2934 243.795C17.1102 242.975 13.8557 244.907 13.0341 248.091C12.2151 251.278 14.1462 254.533 17.3241 255.359ZM14.4717 252.142C13.7885 250.98 13.5922 249.629 13.9311 248.319C14.2 247.27 14.785 246.381 15.557 245.729C16.7619 244.713 18.4228 244.264 20.0648 244.692C21.368 245.026 22.4653 245.851 23.1485 247.009C23.8344 248.171 24.028 249.522 23.6891 250.832C22.9939 253.522 20.2437 255.153 17.5554 254.458C16.2522 254.125 15.1575 253.303 14.4717 252.142ZM13.225 259.093L13.1067 261.247L18.1794 262.555L19.1207 260.609C19.9519 260.593 20.7735 260.472 21.5818 260.262L23.0221 261.863L27.5326 259.197L26.8212 257.156C27.3995 256.551 27.9025 255.889 28.3153 255.167L30.4657 255.283L31.7729 250.208L29.8296 249.264C29.8027 248.433 29.6924 247.609 29.4853 246.808L31.0843 245.36L28.4189 240.843L26.3788 241.552C25.7763 240.979 25.112 240.485 24.3938 240.059L24.5095 237.908L19.4381 236.598L18.4968 238.543C17.667 238.562 16.844 238.681 16.0344 238.896L14.5954 237.287L10.0848 239.958L10.7936 241.997C10.218 242.601 9.72712 243.269 9.3035 243.985L7.15312 243.867L5.84326 248.946L7.78788 249.89C7.81209 250.715 7.92506 251.546 8.14023 252.351L6.53316 253.794L9.19861 258.311L11.2374 257.599C11.8425 258.178 12.5123 258.672 13.225 259.093ZM17.5554 254.459C16.2522 254.125 15.1575 253.303 14.4717 252.142C13.7885 250.98 13.5922 249.629 13.9311 248.319C14.2 247.27 14.785 246.381 15.557 245.729C16.7619 244.713 18.4228 244.264 20.0648 244.692C21.368 245.026 22.4653 245.851 23.1485 247.009C23.8344 248.171 24.028 249.522 23.6891 250.832C22.9939 253.524 20.2423 255.154 17.5554 254.459Z" fill="#0B4870"/>
</g>
</g>
<path d="M201.446 147.244C201.446 147.244 203.12 148.714 204.625 150.973C206.13 153.232 212.36 156.096 212.531 159.18C212.701 162.262 204.864 159.611 201.925 158.612C198.983 157.605 198.538 154.597 196.76 153.842C194.983 153.089 194.059 152.477 194.197 151.009C194.336 149.539 195.316 147.152 195.316 147.152C195.316 147.152 196.422 147.508 197.072 147.578C197.722 147.649 199.909 147.676 201.446 147.244Z" fill="white"/>
<path d="M181.293 63.7082C181.293 63.7082 182.42 70.4154 183.328 74.8434C183.698 76.6421 184.029 78.0651 184.236 78.5148C184.495 79.0749 186.612 81.3488 189.198 84.0185C193.743 88.6996 199.742 94.5937 199.742 94.5937L202.089 90.1361C202.089 90.1361 196.756 83.8812 193.145 79.7049C191.472 77.7716 190.167 76.2894 189.927 76.074C189.171 75.3981 188.296 68.7299 187.064 63.2396C185.83 57.744 183.36 54.7122 183.36 54.7122L181.293 63.7082Z" fill="#357AB8"/>
<path d="M189.198 84.0186C193.742 88.6997 199.742 94.5938 199.742 94.5938L202.088 90.1362C202.088 90.1362 196.756 83.8813 193.145 79.7051C192.036 80.2503 190.002 81.5468 189.198 84.0186Z" fill="#EEA886"/>
<path d="M160.071 145.406C160.071 145.406 158.53 147.116 157.618 148.151C156.703 149.185 150.358 154.02 150.341 157.095C150.321 160.429 155.769 157.153 158.083 157.029C160.392 156.908 162.271 155.309 163.243 153.421C164.217 151.533 166.806 151.038 166.989 149.516C167.17 147.994 165.789 145.254 165.789 145.254L160.071 145.406Z" fill="white"/>
<path d="M165.489 142.417L165.789 145.254C165.789 145.254 160.964 147.357 160.071 145.406L160.279 142.882L165.489 142.417Z" fill="#0B4870"/>
<path d="M201.185 145.191L201.446 147.244C201.446 147.244 198.53 148.275 195.316 147.152L195.253 145.325L201.185 145.191Z" fill="#0B4870"/>
<path d="M159.798 93.6863C159.631 94.2827 190.675 93.6863 190.675 93.6863C190.675 93.6863 182.088 87.4287 181.53 85.7579C180.975 84.0858 183.718 74.0545 184.075 70.7911C184.364 68.1779 185.079 56.4947 183.361 54.7122C181.564 52.8448 175.093 50.8914 175.093 50.8914L165.656 51.2414C165.656 51.2414 164.097 51.5672 162.985 52.0828C161.873 52.6012 155.505 54.8724 154.472 58.055C153.438 61.2417 160.825 71.479 160.825 71.479C160.825 71.479 160.839 71.9395 160.86 72.6907C160.89 73.7004 160.93 75.2258 160.969 76.8844C161.019 79.0304 161.062 81.3946 161.062 83.1192C161.062 87.1783 159.965 93.0899 159.798 93.6863Z" fill="#357AB8"/>
<path d="M159.797 93.6863C159.797 93.6863 155.573 99.8941 155.514 104.134C155.456 108.372 157.08 120.129 157.198 122.453C157.316 124.782 159.504 144.189 159.504 144.189C159.504 144.189 161.196 145.759 166.262 143.789C166.262 143.789 167.382 125.388 167.501 123.418C167.622 121.446 167.622 112.374 168.754 111.059C169.888 109.746 176.745 105.627 177.638 104.851C178.534 104.073 194.116 107.798 195.751 108.222C199.98 109.321 198.052 116.687 197.116 119.986C195.552 125.512 194.183 145.461 194.183 145.461C194.183 145.461 197.194 146.744 202.239 145.66C202.239 145.66 212.144 109.636 212.464 106.055C212.781 102.474 212.938 96.5674 188.526 92.0762L159.797 93.6863Z" fill="#CCE9FF"/>
<path d="M172.502 30.3656C172.502 30.3656 180.693 28.5144 178.821 38.8352C176.951 49.1533 174.982 49.9664 170.041 47.8312C165.096 45.696 165.54 39.0829 165.29 35.841C165.044 32.5978 169.888 30.4787 172.502 30.3656Z" fill="#EEA886"/>
<path d="M174.67 53.5397C174.67 53.5397 171.042 57.3888 165.309 53.8898C165.309 53.8898 166.589 45.5467 165.916 41.4809C165.24 37.4178 173.395 47.7789 173.395 47.7789C173.29 47.8368 173.218 48.2232 173.2 48.7752C173.187 49.241 173.214 49.8266 173.286 50.4298C173.456 51.7801 173.875 53.2086 174.67 53.5397Z" fill="#EEA886"/>
<path d="M168.109 37.4676C168.001 36.5548 166.203 36.2236 166.059 37.5887C165.915 38.9512 166.876 41.3463 167.559 41.112C168.241 40.8764 168.257 38.7223 168.109 37.4676Z" fill="#EEA886"/>
<path d="M165.688 41.1361C165.688 41.1361 165.899 37.8862 167.087 37.7838C168.273 37.6842 168.456 38.9901 168.456 38.9901L169.654 39.219C169.654 39.219 169.278 36.3689 170.462 35.8694C171.646 35.3726 178.137 37.4392 179.088 36.6031C180.038 35.7671 182.581 32.0863 180.859 31.2947C179.141 30.503 171.402 26.6297 167.922 28.9884C167.922 28.9884 165.208 28.6788 164.807 30.8706C164.407 33.0623 164.953 39.5084 165.688 41.1361Z" fill="#0B4870"/>
<path d="M173.288 50.4282C167.373 48.604 166.928 45.0349 166.921 44.9797C168.87 48.332 173.202 48.7736 173.202 48.7736C173.187 49.2408 173.214 49.8264 173.288 50.4282Z" fill="#A77860"/>
<path d="M194.228 93.2503C194.228 93.2503 172.789 95.8958 159.798 93.6865L184.618 90.5806C184.618 90.5819 184.766 91.2147 194.228 93.2503Z" fill="#357AB8"/>
<path d="M178.192 89.6057L179.788 90.4135C179.788 90.4135 179.425 92.954 178.551 93.7241L176.76 93.2663C176.76 93.2663 177.132 90.4808 178.192 89.6057Z" fill="#EEA886"/>
<path d="M153.383 84.4023C153.701 84.7753 157.916 86.4716 162.678 88.3066C169.183 90.8148 176.523 93.1897 176.523 93.1897L178.192 89.6058C178.192 89.6058 170.508 85.4255 165.315 82.4933C162.864 81.1079 160.968 80.0026 160.697 79.7482C159.863 78.9512 159.647 77.6735 160.262 75.4494C160.873 73.2226 162.29 62.9907 162.447 61.7966C162.607 60.6024 162.05 57.4184 159.067 57.2609C156.086 57.098 154.569 57.9421 154.569 57.9421C154.569 57.9421 153.817 58.2544 153.263 65.4989C152.706 72.7434 152.626 83.5259 153.383 84.4023Z" fill="#357AB8"/>
<path d="M162.678 88.3065C169.183 90.8147 176.76 93.2663 176.76 93.2663L178.192 89.6057C178.192 89.6057 170.508 85.4254 165.315 82.4932C165.315 82.4932 163.426 83.4127 162.678 88.3065Z" fill="#EEA886"/>
<path d="M178.653 93.4763L209.128 93.0293L193.742 100.851L178.653 93.4763Z" fill="#F7F7F7"/>
<path d="M193.742 100.851L178.653 94.999V93.4763L194.932 99.3583L193.742 100.851Z" fill="#D3D3D3"/>
<path d="M179.444 90.4714C179.444 90.4714 181.349 90.1739 182.663 89.867C183.683 89.63 186.214 89.9558 186.859 90.6114C187.504 91.2658 189.555 95.823 189.941 96.1017C190.33 96.3804 189.745 97.0253 189.063 96.7008C189.063 96.7008 188.436 98.6933 186.895 97.9475C185.352 97.2003 184.303 95.5699 183.495 95.2831C182.687 94.9964 177.98 93.5477 177.98 93.5477C177.98 93.5477 178.23 89.9841 179.444 90.4714Z" fill="#EEA886"/>
<path d="M186.394 90.3125C186.394 90.3125 187.615 90.9035 187.935 91.1647C188.254 91.4299 189.548 92.4006 189.864 92.6268C190.176 92.8584 189.388 93.5046 187.075 92.503C184.763 91.4986 186.394 90.3125 186.394 90.3125Z" fill="#EEA886"/>
<path d="M193.743 100.851L202.807 76.074L232.029 76.5533L223.391 99.3852L193.743 100.851Z" fill="#D3D3D3"/>
<path d="M216.001 84.914C214.777 84.3017 213.061 85.2532 212.17 87.0392C211.279 88.8252 211.55 90.7694 212.774 91.3816C213.999 91.9939 215.714 91.0424 216.605 89.2564C217.496 87.4704 217.226 85.5262 216.001 84.914Z" fill="#F7F7F7"/>
<path d="M371.896 244.139C371.885 244.149 371.875 244.149 371.875 244.149C371.864 244.171 371.844 244.191 371.822 244.213C370.512 245.354 368.709 245.819 368.521 246.075C368.414 246.221 368.055 246.516 367.78 246.74C367.59 246.884 367.443 246.993 367.443 246.993L364.845 244.7C364.845 244.7 365.352 244.234 365.691 243.654C365.922 243.276 366.072 242.831 365.964 242.449C365.722 241.626 366.08 240.708 366.166 240.327C366.281 239.82 366.334 238.184 366.712 238.279C367.348 238.426 367.197 241.046 367.273 241.606C367.348 242.061 368.527 240.847 369.246 240.392C369.246 240.392 369.299 240.35 369.393 240.287C369.477 240.234 369.551 240.203 369.614 240.193C369.783 240.159 370.132 240.382 370.522 240.731C370.545 240.753 370.554 240.773 370.576 240.794C370.861 241.047 371.155 241.376 371.419 241.733C371.43 241.743 371.43 241.754 371.44 241.766C371.693 242.114 371.916 242.495 372.031 242.853C372.043 242.864 372.043 242.884 372.052 242.905C372.204 243.368 372.191 243.813 371.896 244.139Z" fill="#EEA987"/>
<path d="M369.252 240.389C369.252 240.389 373.481 237.145 373.941 237.163C374.404 237.188 374.567 237.423 374.184 237.745C373.801 238.067 370.19 240.998 370.19 240.998C370.19 240.998 375.837 237.999 376.221 237.932C376.443 237.893 376.613 238.321 376.423 238.514C376.233 238.704 370.978 242.011 370.978 242.011C370.978 242.011 376.255 239.222 376.591 239.264C376.888 239.297 377.098 239.787 376.72 240.019C376.345 240.253 371.59 243.119 371.59 243.119C371.59 243.119 375.56 241.334 375.825 241.534C375.985 241.657 376.215 241.928 375.176 242.359C374.14 242.787 371.878 244.157 371.878 244.157L369.252 240.389Z" fill="#EEA987"/>
<path d="M350.116 241.741L348.071 237.263C348.06 237.232 348.049 237.2 348.028 237.169C346.585 233.913 343.997 232.804 342.058 232.457L342.068 224.216V220.817C343.957 217.319 344.95 212.968 342.774 209.957C343.892 209.982 346.141 210.189 348.135 211.448C350.224 212.747 352.027 215.197 351.912 219.78C351.636 230.503 350.096 232.606 351.922 239.556C352.598 242.133 351.648 242.448 350.116 241.741Z" fill="#0B4870"/>
<path d="M311.952 360.823L311.941 360.833C311.929 361.002 311.899 361.162 311.847 361.286C311.613 361.849 311.434 362.555 311.266 363.347C310.633 366.316 310.2 370.341 308.301 371.091C305.895 372.051 301.948 371.924 301.433 371.091C301.01 370.402 303.469 366.707 304.364 365.416C304.364 365.416 304.354 365.416 304.364 365.406C304.557 365.132 304.672 364.975 304.672 364.975C307.416 362.048 307.479 359.303 307.288 357.959C307.214 357.421 307.098 357.104 307.098 357.104C307.098 357.104 308.08 356.638 309.188 356.607C309.441 356.597 309.705 356.607 309.957 356.649C310.264 356.702 310.549 356.904 310.803 357.209C310.824 357.22 310.824 357.231 310.833 357.24C310.842 357.25 310.856 357.262 310.864 357.282C311.583 358.183 312.037 359.829 311.952 360.823Z" fill="#0B4870"/>
<path d="M310.833 357.231C310.833 357.231 310.833 357.231 310.833 357.241C310.822 357.272 310.811 357.316 310.791 357.379L310.781 357.392V357.4C310.781 357.411 310.781 357.411 310.781 357.411C310.676 357.792 310.444 358.721 310.243 360.222C309.968 362.366 309.155 365.947 307.9 367.183C306.645 368.418 303.553 367.985 303.438 367.511C303.385 367.301 303.829 366.454 304.364 365.418C304.364 365.418 304.354 365.418 304.364 365.407C305.042 364.087 305.864 362.46 305.99 361.468C306.169 360.127 306.55 358.753 306.804 357.907C306.959 357.391 307.077 357.062 307.077 357.062C307.624 356.471 308.449 356.45 309.187 356.607C309.967 356.768 310.654 357.126 310.802 357.209C310.822 357.22 310.833 357.231 310.833 357.231Z" fill="#EEA886"/>
<path d="M344.768 360.823V360.864C344.756 361.022 344.716 361.173 344.671 361.284C344.44 361.858 344.261 362.586 344.082 363.398C343.446 366.356 343.005 370.34 341.126 371.09C338.721 372.049 334.765 371.923 334.258 371.09C333.742 370.253 337.361 365.058 337.361 365.058L337.373 365.047C340.684 361.486 340.094 358.192 339.873 357.356C339.829 357.229 339.807 357.157 339.807 357.157L339.821 357.146C339.978 357.083 341.488 356.418 342.785 356.649C342.912 356.671 343.028 356.712 343.144 356.786C344.167 357.368 344.884 359.597 344.768 360.823Z" fill="#0B4870"/>
<path d="M343.069 360.221C342.954 362.375 341.982 365.945 340.727 367.181C339.461 368.417 336.37 367.984 336.254 367.51C336.199 367.276 336.739 366.252 337.361 365.06L337.373 365.049C338.047 363.747 338.827 362.259 339.059 361.352C339.451 359.895 339.713 357.928 339.787 357.34C339.799 357.221 339.808 357.158 339.808 357.158L339.822 357.147C341.024 355.848 342.786 356.651 342.786 356.651C342.786 356.651 342.815 356.769 342.869 357.001C342.973 357.539 343.153 358.688 343.069 360.221Z" fill="#EEA886"/>
<path d="M326.091 266.09C326.05 268.827 325.996 271.456 325.965 273.635C325.942 274.942 325.923 276.082 325.912 276.982C325.9 277.087 325.9 277.192 325.9 277.287C325.889 278.123 325.046 278.67 324.286 278.366L320.552 276.835L320.287 276.727L319.36 276.346C319.36 276.346 320.058 271.658 320.721 266.165C321.418 266.249 321.84 266.292 321.84 266.292C321.819 266.231 321.799 266.145 321.788 266.03C322.273 266.051 323.001 266.071 323.771 266.082C324.184 266.093 324.607 266.104 325.017 266.104C325.395 266.101 325.763 266.101 326.091 266.09Z" fill="#0B4870"/>
<path d="M326.059 309.865C326.007 310.033 325.942 310.212 325.88 310.381C325.236 312.198 320.76 322.668 320.76 330.683C320.76 336.092 312.774 354.453 310.864 357.283C310.854 357.262 310.842 357.252 310.833 357.241C310.833 357.231 310.833 357.231 310.833 357.231C310.833 357.231 310.822 357.22 310.803 357.209C310.551 356.903 310.264 356.702 309.957 356.649C309.705 356.607 309.441 356.596 309.188 356.607C308.449 356.45 307.626 356.47 307.078 357.062C307.078 357.062 306.96 357.391 306.805 357.906C306.805 357.906 311.659 334.867 311.509 333.707C311.363 332.556 314.496 320.312 314.718 317.068C314.791 315.937 315.087 312.916 315.486 309.274C318.103 309.464 321.934 309.663 326.059 309.865Z" fill="#EEA886"/>
<path d="M346.487 310.752C346.403 311.873 346.319 313.042 346.245 314.281C346.108 316.595 346.024 323.948 345.95 329.28C345.875 334.447 343.722 355.236 343.142 356.788C343.027 356.714 342.911 356.672 342.783 356.651C342.783 356.651 341.02 355.848 339.819 357.147L339.806 357.158C339.806 357.158 339.796 357.221 339.784 357.34C339.784 357.34 338.181 336.877 337.811 332.4C337.444 327.908 337.958 319.016 337.283 316.384C337.093 315.603 336.82 313.289 336.524 310.342C340.664 310.521 344.314 310.668 346.487 310.752Z" fill="#EEA886"/>
<path d="M334.016 261.284C334.616 265.51 335.344 269.955 335.956 273.495C332.589 273.516 328.845 273.581 325.963 273.635C325.993 271.458 326.047 268.828 326.09 266.09C325.762 266.101 325.393 266.101 325.013 266.101C325.352 265.667 325.721 265.215 326.11 264.781C326.47 264.359 326.848 263.948 327.25 263.546C327.345 263.441 327.451 263.346 327.557 263.24C328.529 262.299 329.595 261.452 330.723 260.839C330.996 260.671 331.282 260.534 331.566 260.419C332.294 260.091 333.053 259.87 333.815 259.783C333.889 259.783 333.952 259.775 334.015 259.775C334.383 259.753 334.741 259.753 335.111 259.783C335.701 259.849 336.304 259.995 336.904 260.251L334.034 261.233C334.026 261.251 334.026 261.262 334.016 261.284Z" fill="#313657"/>
<path d="M311.949 360.823V366.351H311.26V362.078L311.949 360.823Z" fill="#0B4870"/>
<path d="M344.772 360.823V366.351H344.086V362.078L344.772 360.823Z" fill="#0B4870"/>
<path d="M339.198 224.628C338.975 226.171 338.669 228.854 338.817 231.031C338.839 231.442 338.879 231.833 338.944 232.193C338.944 232.204 338.944 232.204 338.944 232.214C338.954 232.298 338.975 232.383 338.985 232.468C339.049 232.721 339.113 232.964 339.184 233.177L338.521 234.802C338.383 234.824 338.225 234.844 338.068 234.855C337.76 234.865 337.432 234.865 337.076 234.855C336.684 234.833 336.263 234.791 335.84 234.75H335.83C335.789 234.739 335.747 234.739 335.704 234.728C335.514 234.707 335.313 234.676 335.123 234.654H335.112C333.782 234.464 332.506 234.188 331.809 234.031H331.797C331.472 233.957 331.27 233.901 331.27 233.901C331.27 233.901 331.618 233.079 332.051 231.874C332.082 231.769 332.125 231.653 332.167 231.535L332.452 230.68V230.669L332.462 230.658C332.58 230.28 332.706 229.877 332.822 229.464C332.853 229.359 332.887 229.243 332.905 229.127C332.99 228.819 333.065 228.515 333.129 228.207C333.157 228.027 333.203 227.859 333.232 227.688C333.465 226.389 333.529 225.153 333.232 224.265C332.527 222.174 336.06 222.64 338.067 223.062C338.836 223.22 339.385 223.377 339.385 223.377C339.385 223.377 339.303 223.869 339.198 224.628Z" fill="#EEA886"/>
<path d="M338.985 232.466C338.848 232.455 338.743 232.444 338.671 232.435C338.608 232.435 338.574 232.435 338.574 232.435L338.395 232.424L338.07 232.393L337.668 232.362L337.447 232.341L332.065 231.875C332.065 231.875 332.065 231.875 332.054 231.875C332.012 231.886 331.874 231.906 331.652 231.949C331.569 231.96 331.483 231.98 331.378 232.002C331.241 232.023 331.083 232.054 330.903 232.085C329.354 232.393 326.493 233.006 324.108 233.828C321.66 234.675 318.673 238.204 317.132 240.207C316.478 241.054 316.078 241.625 316.078 241.625C316.078 241.625 317.34 244.604 318.851 248.27C319.801 250.605 320.856 253.214 321.742 255.507C321.742 255.507 321.742 255.507 321.742 255.517C321.912 255.951 322.069 256.351 322.217 256.753C322.819 258.35 323.305 259.722 323.558 260.619C323.695 261.105 323.778 261.665 323.821 262.299C323.831 262.31 323.831 262.33 323.831 262.34C323.864 262.754 323.874 263.185 323.874 263.64C323.874 264.41 323.831 265.236 323.767 266.079C324.18 266.09 324.603 266.101 325.013 266.101C325.393 266.101 325.762 266.101 326.09 266.09C326.048 268.827 325.994 271.456 325.963 273.635C328.845 273.582 332.589 273.516 335.956 273.495C335.344 269.955 334.616 265.508 334.016 261.284C334.026 261.262 334.026 261.253 334.036 261.231L336.906 260.25L337.772 259.952V258.57L333.585 258.084C333.195 255.115 332.908 252.43 332.825 250.466C332.657 246.569 333.87 242.355 335.22 238.954L336.391 240L338.07 235.911L338.523 234.802L339.186 233.177L339.461 232.509C339.281 232.488 339.112 232.477 338.985 232.466Z" fill="#F2F2F2"/>
<path d="M338.938 232.209L331.269 238.467L332.061 231.875C332.061 231.875 336.531 230.91 338.938 232.209Z" fill="#EEA886"/>
<path d="M337.771 258.569V259.952L336.905 260.25L334.035 261.231C334.024 261.253 334.024 261.262 334.015 261.283V261.231C333.982 261.01 333.95 260.797 333.919 260.586C333.907 260.503 333.898 260.418 333.888 260.344C333.857 260.173 333.836 260.005 333.814 259.834V259.781C333.729 259.202 333.657 258.642 333.582 258.082L337.771 258.569Z" fill="#494F80"/>
<path d="M339.545 232.508H339.461L339.186 233.176L338.523 234.8L338.069 235.91L336.391 239.999L335.22 238.952C335.853 237.377 336.519 235.973 337.077 234.853C337.468 234.072 337.815 233.438 338.069 232.974C338.09 232.943 338.1 232.921 338.122 232.89V232.879C338.131 232.879 338.131 232.869 338.131 232.869C338.237 232.689 338.322 232.54 338.395 232.424C338.51 232.225 338.574 232.119 338.574 232.119C338.67 232.14 338.753 232.15 338.849 232.171H338.86C338.891 232.179 338.923 232.179 338.943 232.193C339.142 232.232 339.346 232.276 339.534 232.33C339.534 232.393 339.534 232.455 339.545 232.508Z" fill="#494F80"/>
<path d="M331.631 232.119C331.631 232.119 330.596 234.453 329.445 237.686C328.021 241.667 326.429 246.991 326.344 250.962C326.312 252.526 326.269 254.722 326.228 257.217C326.206 258.61 326.187 260.088 326.153 261.611C326.153 261.842 326.153 262.074 326.142 262.308C326.132 262.837 326.132 263.376 326.121 263.902C326.121 263.913 326.121 263.913 326.121 263.927C326.11 264.2 326.11 264.495 326.11 264.781C326.099 265.226 326.089 265.657 326.089 266.091C325.76 266.102 325.392 266.102 325.011 266.102C324.601 266.102 324.179 266.091 323.766 266.081C322.997 266.07 322.269 266.05 321.782 266.028C321.793 266.144 321.813 266.23 321.835 266.291C321.835 266.291 321.413 266.249 320.716 266.164C320.833 265.173 320.95 264.137 321.066 263.111C321.075 262.995 321.087 262.868 321.095 262.753C321.191 261.938 321.275 261.125 321.348 260.32C321.476 259.065 321.581 257.84 321.656 256.689C321.687 256.286 321.719 255.897 321.739 255.516C321.739 255.505 321.739 255.505 321.739 255.505C321.813 254.288 321.855 253.18 321.855 252.239L318.848 248.269L314.765 242.87C314.765 242.87 315.641 241.687 316.875 240.175C318.7 237.938 321.317 234.98 323.016 234.136C325.38 232.952 329.654 232.171 330.993 231.948L331.004 231.937C331.268 231.895 331.417 231.874 331.417 231.874L331.374 232L331.29 232.232C331.363 232.204 331.426 232.171 331.511 232.161H331.522C331.557 232.14 331.598 232.127 331.631 232.119Z" fill="#0B4870"/>
<path d="M334.078 261.009C334.069 261.083 334.057 261.156 334.037 261.23C334.026 261.251 334.026 261.261 334.016 261.282C333.319 263.564 328.171 265.805 327.368 266.005C327.169 266.058 326.693 266.089 326.091 266.089C325.763 266.099 325.395 266.099 325.014 266.099C324.604 266.099 324.182 266.089 323.769 266.078C323 266.067 322.272 266.047 321.785 266.025C321.415 266.015 321.184 266.004 321.184 266.004V263.142H321.206C321.261 263.12 321.48 263.047 321.807 262.932C322.272 262.782 322.967 262.561 323.792 262.308C323.801 262.308 323.815 262.298 323.823 262.298C324.276 262.16 324.783 262.013 325.299 261.853C325.584 261.779 325.868 261.696 326.155 261.611C328.012 261.103 330.029 260.607 331.568 260.417C331.811 260.375 332.033 260.353 332.243 260.343C332.865 260.29 333.362 260.318 333.678 260.437C333.772 260.479 333.858 260.52 333.921 260.584C334.047 260.683 334.111 260.818 334.078 261.009Z" fill="#EEA886"/>
<path d="M337.771 258.57L335.114 259.781L333.89 260.344L333.677 260.44L327.558 263.24L326.122 263.902L325.881 264.007L323.832 262.341L323.792 262.308L321.352 260.321L316.078 256.034L321.66 256.689L322.218 256.752L323.98 256.953L326.228 257.218L333.583 258.084L337.771 258.57Z" fill="#F7F7F7"/>
<path d="M337.771 258.57V259.952L336.906 260.25L334.037 261.23H334.016L327.252 263.544L326.122 263.925L325.882 264.007L325.479 262.52L326.144 262.308L330.724 260.838L332.243 260.344L333.816 259.834L334.016 259.773L337.771 258.57Z" fill="#D3D3D3"/>
<path d="M332.46 230.657L328.341 237.208L326.345 238.467L330.994 231.947L332.46 230.657Z" fill="#F2F2F2"/>
<path d="M328.341 237.208L331.268 238.467L332.061 231.875L332.46 230.657L328.341 237.208Z" fill="#D6C5BE"/>
<path d="M321.786 266.027C321.797 266.142 321.817 266.229 321.839 266.289C321.839 266.289 321.417 266.247 320.72 266.163C317.482 265.795 308.239 264.621 307.214 263.078C306.602 262.151 306.295 261.145 306.158 260.355V260.344C306.001 259.519 306.013 258.926 306.013 258.926L321.101 262.752L321.808 262.932L321.839 262.942C321.839 262.942 321.827 263.058 321.817 263.257C321.774 263.894 321.691 265.34 321.786 266.027Z" fill="#0B4870"/>
<path d="M325.881 264.013L319.55 240.463L295.494 237.92L302.087 259.598L325.881 264.013Z" fill="#D3D3D3"/>
<path d="M368.34 247.559C368.34 247.559 361.694 253.413 358.16 256.879C358.16 256.879 354.065 261.293 352.83 261.293C352.776 261.293 352.725 261.282 352.682 261.262C351.775 260.87 348.673 256.468 345.973 251.882C345.847 252.241 345.697 252.663 345.551 253.129C345.414 253.532 345.278 253.973 345.128 254.448C344.76 255.674 344.359 257.078 343.999 258.57C342.944 262.953 348.274 276.653 348.274 276.653L347.049 277.066L346.859 277.13L339.272 279.709C338.165 280.077 336.971 279.381 336.77 278.219C336.73 277.956 336.678 277.67 336.625 277.364C336.582 277.14 336.55 276.92 336.508 276.675C336.497 276.622 336.487 276.559 336.477 276.506C336.403 276.096 336.32 275.641 336.246 275.176C336.201 274.974 336.171 274.774 336.14 274.564C336.075 274.214 336.023 273.864 335.959 273.496C335.347 269.957 334.62 265.51 334.02 261.285C334.03 261.263 334.03 261.254 334.04 261.232L336.91 260.251L337.776 259.954V258.571L333.588 258.085C333.198 255.116 332.912 252.432 332.829 250.467C332.661 246.57 333.874 242.356 335.224 238.955L336.395 240.001L338.073 235.913L338.527 234.803L339.19 233.178L339.465 232.51H339.549C339.538 232.458 339.538 232.395 339.538 232.331C339.538 232.331 340.626 232.182 342.061 232.458C344 232.805 346.588 233.915 348.031 237.17C348.053 237.201 348.063 237.233 348.074 237.264L350.119 241.742L353.633 249.434C353.633 249.434 354.636 251.188 355.142 251.715C355.142 251.715 356.409 250.995 357.064 250.551C358.275 249.56 358.984 249.188 360.439 247.935C362.699 245.99 365.601 243.518 365.601 243.518L365.695 243.655C365.356 244.237 364.849 244.701 364.849 244.701L367.447 246.994C367.447 246.994 367.594 246.886 367.783 246.741L368.34 247.559Z" fill="#0B4870"/>
<path d="M367.781 246.74C367.591 246.884 367.444 246.993 367.444 246.993L364.846 244.7C364.846 244.7 365.353 244.234 365.692 243.654L367.781 246.74Z" fill="#0B4870"/>
<path d="M340.24 223.563C339.902 223.952 339.556 224.302 339.198 224.628C338.597 225.167 337.971 225.632 337.338 226.013C337.338 226.013 337.338 226.024 337.319 226.035C337.296 226.046 337.275 226.057 337.244 226.074C336.749 226.372 336.253 226.626 335.766 226.836C335.724 226.867 335.682 226.878 335.639 226.889C335.348 227.01 335.056 227.12 334.783 227.217C334.547 227.3 334.317 227.377 334.089 227.446C333.758 227.548 333.49 227.622 333.348 227.659C333.274 227.683 333.231 227.69 333.231 227.69C331.733 228.04 330.509 228.081 329.906 228.029C328.305 227.879 327.354 223.148 327.354 223.148C327.354 223.148 326.014 222.726 325.706 222.483C325.401 222.241 327.143 218.216 326.867 216.745C326.594 215.278 326.594 213.451 326.594 213.451C326.699 213.007 326.836 212.585 326.985 212.194C329.14 214.381 336.211 221.397 340.24 223.563Z" fill="#EEA886"/>
<path d="M333.488 237.404L331.269 238.467L338.8 230.993L333.488 237.404Z" fill="#D6C5BE"/>
<path d="M339.534 232.33L339.46 232.508L339.184 233.177L338.521 234.802L338.068 235.911L336.39 240L335.219 238.954L333.488 237.402L335.365 235.128L335.376 235.117L335.704 234.728L337.666 232.361L338.068 231.875L338.078 231.864L338.796 230.996L338.817 231.031L339.534 232.33Z" fill="#F2F2F2"/>
<path d="M337.343 226.013C337.308 226.068 336.156 227.862 332.911 229.131C332.989 228.823 333.061 228.513 333.127 228.205C333.162 228.031 333.198 227.858 333.229 227.684C333.229 227.685 335.914 227.028 337.343 226.013Z" fill="#A77860"/>
<path d="M311.422 253.268C312.105 252.904 312.116 251.588 311.447 250.327C310.778 249.066 309.682 248.339 308.999 248.702C308.317 249.065 308.306 250.382 308.975 251.642C309.644 252.903 310.74 253.631 311.422 253.268Z" fill="#F7F7F7"/>
<path d="M106.056 293.424C106.056 293.424 107.543 293.724 108.256 293.744C108.967 293.769 112.254 292.274 113.31 292.417C114.36 292.558 121.225 295.477 121.536 295.694C121.845 295.907 121.389 296.375 121.389 296.375L105.629 296.565L106.056 293.424Z" fill="#FCD2B1"/>
<path d="M126.942 296.252L100.73 296.449L100.748 298.852L126.961 298.655L126.942 296.252Z" fill="#D3D3D3"/>
<path d="M132.334 272.826L124.668 297.923L126.965 298.626L134.631 273.53L132.334 272.826Z" fill="#D3D3D3"/>
<path d="M79.092 347.199L78.082 349.39C78.082 349.39 73.823 347.801 73.8001 347.746C73.7786 347.693 74.9728 344.706 74.9728 344.706L79.092 347.199Z" fill="#D3D3D3"/>
<path d="M115.561 347.152L116.736 350.597C116.736 350.597 112.066 351.631 111.385 351.576C111.326 351.571 110.503 347.674 110.503 347.674L115.561 347.152Z" fill="#D3D3D3"/>
<path d="M110.865 350.571C110.865 350.571 114.129 349.682 114.227 349.539C114.322 349.398 115.522 348.587 116.139 348.692C116.756 348.797 116.812 349.534 117.429 349.686C118.047 349.835 122.818 351.364 123.479 351.755C124.141 352.144 129.862 350.756 130.468 351.576C131.075 352.393 129.103 354.782 124.144 355.529C119.184 356.274 113.873 358.489 112.686 358.188C111.495 357.885 110.683 351.895 110.865 350.571Z" fill="#0B4870"/>
<path d="M73.4652 347.163C73.4652 347.163 76.4924 348.457 76.6497 348.407C76.8111 348.357 78.2124 348.462 78.6212 348.914C79.0314 349.367 78.6266 349.963 79.0072 350.453C79.3851 350.939 81.5449 353.797 82.1743 354.458C82.6907 354.997 88.4049 356.188 89.314 357.138C89.9985 357.855 86.3136 360.032 81.4951 358.666C76.8017 357.333 70.9907 355.021 70.2685 354.077C69.5436 353.126 72.5305 348.065 73.4652 347.163Z" fill="#0B4870"/>
<path d="M76.5705 304.198C76.5705 304.198 89.8816 310.125 92.7017 312.15C95.5245 314.174 101.699 317.908 101.904 318.82C102.11 319.733 103.333 318.845 101.143 323.406C98.9538 327.969 88.5973 338.946 87.6263 340.141C86.6123 341.387 79.4282 348.842 79.4282 348.842L74.0247 344.769C74.0247 344.769 84.4135 329.476 85.917 327.228C87.4205 324.98 88.0997 324.649 87.2094 323.652C86.3205 322.661 82.7688 322.674 64.4872 315.094C62.6596 314.337 57.5613 312.583 56.8889 310.127C55.6772 305.689 56.7181 300.064 61.6308 297.592C66.5475 295.116 76.5705 304.198 76.5705 304.198Z" fill="#0E538C"/>
<path d="M82.9004 261.298C82.7834 261.403 82.6556 261.63 82.5225 261.941C82.3315 262.388 82.1298 263.008 81.9335 263.695C81.331 265.809 80.7823 268.52 80.7823 268.52C80.7823 268.52 73.1639 262.164 74.2411 261.764C75.3183 261.367 76.1157 259.508 76.1157 259.508C76.1157 259.508 83.7019 260.589 82.9004 261.298Z" fill="#FCD2B1"/>
<path d="M76.3592 301.801C76.3592 301.801 90.1128 305.04 93.5138 306.129C96.9122 307.215 102.765 309.131 104.336 310.028C105.171 310.506 106.447 311.219 107.973 316.194C109.707 321.834 113.658 337.696 114.555 340.168C115.117 341.719 116.736 347.823 116.736 347.823L109.71 349.042C109.71 349.042 101.341 332.175 100.662 327.681C99.5198 320.11 96.5881 320.071 95.4047 319.379C94.2185 318.693 88.5178 319.984 68.2365 318.364C66.2098 318.204 60.6678 318.104 59.2342 315.914C56.6414 311.957 54.0257 307.463 58.0507 303.485C62.0758 299.508 76.3592 301.801 76.3592 301.801Z" fill="#0E538C"/>
<path d="M85.5862 245.369C85.5862 245.369 87.9678 249.485 87.4232 250.605C86.8826 251.725 89.9111 254.439 89.4122 255.014C88.916 255.587 87.8912 256.283 87.9073 256.452C87.9248 256.617 87.0278 261.981 85.8592 262.099C84.6945 262.221 76.7076 261.802 76.0459 259.307C75.3843 256.804 73.4356 251.329 72.9784 250.309C72.5171 249.295 77.1218 241.438 85.5862 245.369Z" fill="#FCD2B1"/>
<path d="M75.7417 244.572C75.076 245.066 74.5394 245.59 74.1091 246.126C73.586 246.371 70.4996 247.905 71.1397 249.565C72.0058 251.8 75.497 257.783 75.7901 258.405C75.8291 258.489 75.8291 258.331 75.8009 257.997C76.016 255.884 78.6142 253.517 78.6142 253.517L79.9981 252.888C79.2759 251.544 79.561 250.287 79.561 250.287C81.1304 248.604 86.3416 246.792 86.3416 246.792C86.3403 232.29 79.2342 241.98 75.7417 244.572Z" fill="#0B4870"/>
<path d="M78.1006 251.769C77.7308 251.204 75.7861 251.295 76.0672 252.958C76.3537 254.617 78.7381 255.951 79.2585 255.209C79.779 254.47 78.4919 252.366 78.1006 251.769Z" fill="#FCD2B1"/>
<path d="M74.24 261.764C74.24 261.764 64.5895 267.394 62.4123 277.225C60.2336 287.054 56.2974 304.317 56.2261 306.363C56.2261 306.363 69.2857 300.07 76.3595 301.8C76.3595 301.8 80.8136 285.785 83.1576 281.998C85.5003 278.213 82.0172 269.321 82.0172 269.321C82.0172 269.321 78.6901 263.983 74.24 261.764Z" fill="#0B4870"/>
<path d="M82.5224 261.941C82.3315 262.388 82.1298 263.008 81.9334 263.695C80.793 263.218 78.617 261.21 78.5498 261.146C79.4589 261.499 82.5224 261.941 82.5224 261.941Z" fill="#997761"/>
<path d="M158.219 298.63H150.988H126.923H98.8541C97.9571 298.63 97.2295 299.508 97.2295 300.592V301.756H120.729H152.615H160.295V300.592C160.295 299.508 159.365 298.63 158.219 298.63Z" fill="#FCD2B1"/>
<path d="M78.4744 269.379C78.4744 269.379 80.7727 272.64 82.1942 275.106C83.804 277.904 85.3882 280.668 85.7378 281.291C86.4479 282.554 88.9762 283.228 90.0951 283.71C91.1266 284.152 108.264 293.334 108.482 293.316C108.701 293.297 106.635 296.74 106.635 296.74C106.635 296.74 82.8384 289.909 81.7679 288.927C80.6974 287.949 77.5223 283.495 76.2232 281.66C74.9859 279.911 73.0884 277.045 72.0838 275.809C70.9555 274.429 68.5967 269.701 71.597 267.345C75.4311 264.33 77.5519 267.994 78.4744 269.379Z" fill="#0B4870"/>
<path d="M104.223 301.756H102.236V362.254H104.223V301.756Z" fill="#0B4870"/>
<path d="M156.449 301.756H154.46V362.254H156.449V301.756Z" fill="#0B4870"/>
<path d="M348.588 310.836C348.588 310.836 347.818 310.805 346.487 310.752C344.314 310.669 340.664 310.521 336.527 310.339C333.183 310.202 329.51 310.033 326.06 309.865C321.936 309.663 318.104 309.462 315.486 309.274C313.314 309.125 311.964 308.987 311.964 308.882C312.513 303.971 315.919 291.654 318.442 282.993C319.16 280.518 319.804 278.344 320.287 276.727L320.552 276.835L324.287 278.366C325.046 278.671 325.89 278.123 325.9 277.287C325.9 277.193 325.9 277.088 325.912 276.982C325.923 276.082 325.942 274.941 325.965 273.635C328.847 273.582 332.591 273.516 335.957 273.495C336.02 273.862 336.073 274.212 336.137 274.562C336.168 274.772 336.199 274.973 336.243 275.175C336.317 275.641 336.401 276.096 336.475 276.505C336.485 276.557 336.496 276.621 336.506 276.673C336.547 276.918 336.58 277.139 336.623 277.363C336.675 277.668 336.728 277.954 336.768 278.217C336.968 279.379 338.162 280.077 339.269 279.708L346.857 277.128L347.046 277.065C353.145 288.031 348.588 310.836 348.588 310.836Z" fill="#0B4870"/>
<path d="M342.066 220.815C341.804 221.323 341.519 221.809 341.213 222.264C340.905 222.727 340.578 223.16 340.24 223.563C336.211 221.397 329.14 214.381 326.988 212.196C328.98 206.777 334.131 206.27 336.473 206.64C339.648 207.169 341.643 208.373 342.773 209.956C344.947 212.966 343.956 217.318 342.066 220.815Z" fill="#0B4870"/>
</svg>
