<svg width="600" height="600" viewBox="0 0 600 600" fill="none" xmlns="http://www.w3.org/2000/svg">
<rect width="600" height="600" fill="white"/>
<path d="M140.511 148.213C123.55 155.603 106.73 164.698 94.8781 178.909C83.0263 193.12 77.065 213.512 84.2328 230.636C93.7426 253.445 123.833 266.732 123.975 291.459C124.046 309.151 107.723 322.652 91.2587 329.118C74.794 335.584 56.555 337.857 41.5806 347.308C18.9415 361.518 8.36717 389.016 4.03807 415.378C-0.432961 442.734 1.34126 473.926 20.7157 493.822C44.7742 518.477 84.5167 515.706 118.582 510.448C164.002 503.414 209.209 495.172 254.487 486.929C353.63 468.81 452.774 450.763 551.846 432.644C562.491 430.725 573.563 428.594 582.15 422.057C599.324 409.125 600.744 382.479 590.808 363.508C580.872 344.465 562.42 331.534 544.111 320.378C525.801 309.222 506.426 298.635 492.729 282.08C479.032 265.524 472.219 241.081 482.581 222.323C491.381 206.407 510.258 197.88 518.491 181.68C529.349 160.293 516.859 133.008 497.129 119.365C477.329 105.581 230.003 108.991 140.511 148.213Z" fill="#F7F7F7" fill-opacity="0.7"/>
<path d="M455.068 210.654V402.523C455.068 416.091 444.07 427.074 430.516 427.074H217.484C203.932 427.074 192.932 416.092 192.932 402.523V210.654C192.932 197.086 203.932 186.101 217.484 186.101H430.517C444.07 186.102 455.068 197.086 455.068 210.654Z" fill="#1B3557"/>
<path d="M463.069 195.477V227.766C463.069 229.977 462.78 232.127 462.24 234.157H185.76C185.22 232.128 184.93 229.977 184.93 227.766V195.477C184.93 181.907 195.93 170.926 209.48 170.926H438.521C452.069 170.926 463.069 181.906 463.069 195.477Z" fill="#357AB8"/>
<path opacity="0.65" d="M354 171H294V288H354V171Z" fill="white"/>
<path d="M270.025 322.797L280.523 312.885L309.967 343.5L279.84 371.82L270.123 360.98L290.045 342.914L270.025 322.797ZM373.385 391.01V404.291H332.418V391.01H373.385Z" fill="#1B3557"/>
<path d="M270.025 322.797L266.593 319.161L262.86 322.685L266.481 326.324L270.025 322.797ZM280.523 312.885L284.127 309.419L280.693 305.848L277.091 309.249L280.523 312.885ZM309.967 343.5L313.391 347.143L317.076 343.679L313.571 340.034L309.967 343.5ZM279.84 371.82L276.117 375.158L279.534 378.97L283.264 375.463L279.84 371.82ZM270.123 360.98L266.764 357.277L263.082 360.616L266.4 364.318L270.123 360.98ZM290.045 342.914L293.404 346.618L297.283 343.1L293.589 339.387L290.045 342.914ZM273.458 326.432L283.956 316.52L277.091 309.249L266.593 319.161L273.458 326.432ZM276.92 316.351L306.363 346.966L313.571 340.034L284.127 309.419L276.92 316.351ZM306.542 339.857L276.415 368.177L283.264 375.463L313.391 347.143L306.542 339.857ZM283.563 368.483L273.846 357.643L266.4 364.318L276.117 375.158L283.563 368.483ZM273.482 364.684L293.404 346.618L286.686 339.21L266.764 357.277L273.482 364.684ZM293.589 339.387L273.57 319.27L266.481 326.324L286.501 346.441L293.589 339.387ZM373.385 391.01H378.385V386.01H373.385V391.01ZM373.385 404.291V409.291H378.385V404.291H373.385ZM332.418 404.291H327.418V409.291H332.418V404.291ZM332.418 391.01V386.01H327.418V391.01H332.418ZM368.385 391.01V404.291H378.385V391.01H368.385ZM373.385 399.291H332.418V409.291H373.385V399.291ZM337.418 404.291V391.01H327.418V404.291H337.418ZM332.418 396.01H373.385V386.01H332.418V396.01Z" fill="white"/>
</svg>
