<svg width="444" height="444" viewBox="0 0 444 444" fill="none" xmlns="http://www.w3.org/2000/svg">
<circle cx="222" cy="222" r="222" fill="#1B3557"/>
<path d="M111.107 259.09C111.107 259.09 199.234 330.093 222.049 330.093C244.864 330.093 335.412 259.09 335.412 259.09C361.231 228.026 351.869 83.1965 224.066 84.0034C92.1118 84.8365 78.1388 208.742 111.107 259.09Z" stroke="white" stroke-width="15"/>
<path d="M153.824 292.168C153.824 292.168 150.194 316.197 150.194 328.993C150.194 341.789 148.983 351.875 153.824 356.716C158.666 361.557 286.552 361.96 291.796 356.716C297.041 351.471 295.024 328.993 295.024 328.993L291.796 292.168" stroke="white" stroke-width="13"/>
<path d="M170.23 298.623C170.23 298.623 179.381 267.962 222.272 267.962C265.164 267.962 274.314 298.623 274.314 298.623" stroke="white" stroke-width="13"/>
<path fill-rule="evenodd" clip-rule="evenodd" d="M216.982 84C221.27 98.8695 221.27 171.277 221.27 220.296C221.27 246.826 221.27 266.505 221.95 266.505C222.587 266.505 222.469 249.276 222.306 225.325C221.974 176.427 221.45 99.5103 226.765 84H216.982Z" fill="white"/>
<path d="M216.982 84V80.5H212.33L213.619 84.9698L216.982 84ZM221.27 220.296L217.77 220.296L221.27 220.296ZM222.306 225.325L218.806 225.349L218.806 225.349L222.306 225.325ZM226.765 84L230.076 85.1345L231.664 80.5H226.765V84ZM213.619 84.9698C214.567 88.2569 215.361 95.1827 215.968 104.894C216.567 114.468 216.967 126.389 217.235 139.414C217.77 165.459 217.77 195.778 217.77 220.296L224.77 220.296C224.77 195.795 224.77 165.4 224.234 139.27C223.965 126.207 223.562 114.174 222.954 104.458C222.356 94.8791 221.541 87.1779 220.345 83.0302L213.619 84.9698ZM217.77 220.296C217.77 233.553 217.77 245.127 217.855 253.385C217.898 257.508 217.962 260.845 218.06 263.163C218.108 264.31 218.168 265.279 218.246 265.991C218.283 266.324 218.338 266.736 218.433 267.12C218.473 267.283 218.572 267.661 218.788 268.072C218.894 268.275 219.123 268.671 219.536 269.055C219.976 269.463 220.797 270.005 221.95 270.005V263.005C223.081 263.005 223.881 263.537 224.3 263.926C224.693 264.291 224.902 264.659 224.988 264.823C225.164 265.158 225.224 265.423 225.227 265.435C225.248 265.518 225.233 265.481 225.204 265.224C225.153 264.756 225.101 263.981 225.054 262.868C224.96 260.668 224.897 257.426 224.855 253.313C224.77 245.099 224.77 233.569 224.77 220.296L217.77 220.296ZM221.95 270.005C224.083 270.005 224.994 268.286 225.069 268.15C225.302 267.729 225.408 267.342 225.449 267.18C225.547 266.8 225.6 266.403 225.633 266.104C225.705 265.455 225.756 264.585 225.794 263.572C225.873 261.519 225.913 258.567 225.928 254.911C225.958 247.586 225.888 237.268 225.806 225.302L218.806 225.349C218.888 237.333 218.958 247.605 218.928 254.882C218.913 258.527 218.873 261.379 218.8 263.305C218.762 264.282 218.719 264.945 218.676 265.332C218.652 265.55 218.642 265.547 218.672 265.431C218.679 265.401 218.749 265.114 218.945 264.76C218.983 264.69 219.856 263.005 221.95 263.005V270.005ZM225.806 225.302C225.64 200.843 225.426 169.434 225.917 142.205C226.163 128.588 226.584 116.058 227.271 105.987C227.97 95.7502 228.922 88.5027 230.076 85.1345L223.454 82.8655C221.951 87.2524 220.975 95.4359 220.288 105.511C219.589 115.752 219.165 128.416 218.919 142.079C218.426 169.411 218.64 200.909 218.806 225.349L225.806 225.302ZM226.765 80.5H216.982V87.5H226.765V80.5Z" fill="white"/>
<path fill-rule="evenodd" clip-rule="evenodd" d="M173.128 86.7669C173.13 86.7777 173.133 86.7885 173.136 86.7993L173.128 86.7669ZM172.45 93.1566C172.053 108.755 189.568 177.144 201.439 223.497C207.887 248.674 212.67 267.35 212.013 267.534C211.398 267.706 207.324 251.324 201.66 228.551C190.137 182.215 172.034 109.422 163.098 95.7785L172.45 93.1566Z" fill="white"/>
<path d="M173.128 86.7669L169.758 87.7117L176.494 85.8091L173.128 86.7669ZM173.136 86.7993L176.509 85.8675L169.766 87.7441L173.136 86.7993ZM172.45 93.1566L171.582 89.7661L176.048 88.514L175.929 93.1783L172.45 93.1566ZM201.439 223.497L198.069 224.442L198.069 224.442L201.439 223.497ZM201.66 228.551L205.036 227.63L201.66 228.551ZM163.098 95.7785L160.185 97.7619L157.529 93.7058L162.23 92.3879L163.098 95.7785ZM176.494 85.8091C176.499 85.8286 176.504 85.848 176.509 85.8675L169.763 87.7311C169.762 87.7289 169.761 87.7268 169.761 87.7247L176.494 85.8091ZM169.766 87.7441L169.758 87.7117L176.498 85.8221L176.506 85.8545L169.766 87.7441ZM175.929 93.1783C175.841 96.637 176.778 103.468 178.561 112.856C180.319 122.114 182.83 133.519 185.732 145.92C191.535 170.719 198.872 199.368 204.809 222.552L198.069 224.442C192.136 201.274 184.779 172.551 178.957 147.668C176.046 135.228 173.51 123.714 171.725 114.314C169.964 105.043 168.861 97.4756 168.971 93.1349L175.929 93.1783ZM204.809 222.552C208.031 235.133 210.844 246.118 212.769 253.979C213.731 257.904 214.48 261.089 214.949 263.319C215.181 264.421 215.36 265.361 215.458 266.063C215.504 266.391 215.552 266.804 215.554 267.204C215.554 267.374 215.55 267.772 215.439 268.233C215.384 268.462 215.257 268.907 214.947 269.388C214.618 269.901 213.964 270.621 212.882 270.924L211.145 264.143C210.083 264.441 209.447 265.146 209.133 265.635C208.839 266.093 208.724 266.505 208.679 266.692C208.588 267.07 208.593 267.35 208.593 267.367C208.594 267.461 208.601 267.43 208.566 267.18C208.503 266.727 208.365 265.981 208.14 264.913C207.696 262.803 206.97 259.711 206.011 255.797C204.097 247.98 201.295 237.038 198.069 224.442L204.809 222.552ZM212.882 270.924C210.867 271.489 209.574 270.131 209.442 269.996C209.106 269.65 208.904 269.301 208.822 269.155C208.629 268.811 208.479 268.441 208.374 268.164C208.144 267.562 207.883 266.746 207.599 265.795C207.024 263.865 206.267 261.072 205.364 257.606C203.554 250.662 201.114 240.85 198.284 229.472L205.036 227.63C207.87 239.025 210.299 248.791 212.096 255.688C212.997 259.143 213.728 261.836 214.266 263.641C214.539 264.558 214.741 265.171 214.875 265.521C214.95 265.72 214.956 265.706 214.894 265.595C214.877 265.564 214.734 265.3 214.449 265.008C214.369 264.926 213.121 263.589 211.145 264.143L212.882 270.924ZM198.284 229.472C192.52 206.295 185.125 176.557 178.055 150.912C174.52 138.087 171.077 126.325 167.97 116.94C164.814 107.404 162.132 100.734 160.185 97.7619L166.011 93.7951C168.532 97.6445 171.464 105.19 174.575 114.588C177.736 124.137 181.215 136.028 184.763 148.899C191.86 174.645 199.277 204.471 205.036 227.63L198.284 229.472ZM162.23 92.3879L171.582 89.7661L173.319 96.5472L163.966 99.1691L162.23 92.3879Z" fill="white"/>
<path fill-rule="evenodd" clip-rule="evenodd" d="M128.938 123.205C132.131 137.257 163.43 193.977 184.644 232.421C196.167 253.302 204.715 268.791 204.166 269.122C203.653 269.432 196.264 255.815 185.993 236.884C165.095 198.368 132.265 137.858 121.13 127.922L128.938 123.205Z" fill="white"/>
<path d="M128.938 123.205L127.247 120.141L131.243 117.727L132.288 122.327L128.938 123.205ZM184.644 232.421L187.64 230.611L184.644 232.421ZM185.993 236.884L182.985 238.672L182.985 238.672L185.993 236.884ZM121.13 127.922L118.854 130.636L115.228 127.401L119.439 124.858L121.13 127.922ZM132.288 122.327C132.986 125.399 135.364 131.235 139.105 139.184C142.788 147.011 147.636 156.569 153.064 166.922C163.92 187.625 177.029 211.382 187.64 230.611L181.649 234.23C171.046 215.016 157.898 191.191 147.002 170.41C141.555 160.021 136.653 150.361 132.907 142.4C129.218 134.561 126.487 128.038 125.589 124.084L132.288 122.327ZM187.64 230.611C193.398 241.044 198.426 250.157 201.946 256.701C203.703 259.968 205.104 262.631 206.036 264.512C206.495 265.44 206.875 266.245 207.128 266.861C207.245 267.146 207.39 267.522 207.489 267.904C207.531 268.066 207.626 268.455 207.631 268.936C207.634 269.176 207.619 269.642 207.438 270.189C207.244 270.774 206.796 271.619 205.857 272.187L202.475 266.058C201.554 266.615 201.118 267.443 200.933 268.002C200.76 268.524 200.749 268.957 200.751 269.158C200.756 269.56 200.833 269.84 200.839 269.866C200.867 269.974 200.874 269.963 200.787 269.752C200.633 269.376 200.344 268.753 199.9 267.856C199.023 266.087 197.67 263.511 195.918 260.254C192.421 253.751 187.414 244.678 181.649 234.23L187.64 230.611ZM205.857 272.187C204.102 273.247 202.543 272.324 202.356 272.214C201.94 271.969 201.655 271.685 201.54 271.566C201.271 271.289 201.039 270.979 200.879 270.754C200.528 270.263 200.101 269.589 199.629 268.809C198.669 267.223 197.351 264.912 195.75 262.041C192.543 256.288 188.117 248.129 182.985 238.672L189.001 235.096C194.141 244.569 198.544 252.685 201.727 258.396C203.322 261.257 204.589 263.475 205.48 264.947C205.933 265.696 206.248 266.183 206.44 266.451C206.55 266.606 206.54 266.575 206.441 266.472C206.411 266.441 206.198 266.217 205.841 266.008C205.712 265.932 204.199 265.017 202.475 266.058L205.857 272.187ZM182.985 238.672C172.532 219.405 159.122 194.69 146.937 173.552C140.843 162.981 135.077 153.342 130.154 145.744C125.144 138.01 121.241 132.766 118.854 130.636L123.406 125.208C126.587 128.046 130.963 134.092 135.893 141.702C140.911 149.448 146.746 159.206 152.864 169.819C165.103 191.049 178.557 215.847 189.001 235.096L182.985 238.672ZM119.439 124.858L127.247 120.141L130.629 126.27L122.821 130.987L119.439 124.858Z" fill="white"/>
<path fill-rule="evenodd" clip-rule="evenodd" d="M102.251 176.882C107.875 187.159 145.267 223.741 170.61 248.536C184.375 262.003 194.586 271.993 194.222 272.401C193.88 272.784 185.003 263.967 172.663 251.711C147.557 226.774 108.114 187.599 97.0547 182.695L102.251 176.882Z" fill="white"/>
<path d="M102.251 176.882L99.7489 174.434L102.911 170.896L105.218 175.111L102.251 176.882ZM170.61 248.536L168.278 251.145L170.61 248.536ZM172.663 251.711L175.015 249.12L172.663 251.711ZM97.0547 182.695L95.7279 185.989L91.2116 183.986L94.5529 180.248L97.0547 182.695ZM105.218 175.111C106.394 177.261 109.504 181.181 114.239 186.49C118.879 191.694 124.829 197.961 131.424 204.711C144.61 218.207 160.264 233.522 172.942 245.926L168.278 251.145C155.612 238.754 139.899 223.381 126.647 209.818C120.023 203.038 113.987 196.683 109.243 191.363C104.592 186.147 100.919 181.641 99.2836 178.652L105.218 175.111ZM172.942 245.926C179.819 252.654 185.83 258.535 190.075 262.784C192.194 264.904 193.903 266.649 195.069 267.902C195.642 268.518 196.139 269.072 196.495 269.518C196.658 269.721 196.887 270.018 197.08 270.347C197.162 270.486 197.362 270.837 197.499 271.309C197.555 271.504 198.095 273.314 196.723 274.849L191.72 269.954C190.371 271.462 190.913 273.229 190.951 273.361C191.07 273.771 191.232 274.04 191.255 274.081C191.333 274.212 191.366 274.24 191.257 274.104C191.072 273.872 190.723 273.474 190.175 272.886C189.099 271.73 187.464 270.059 185.354 267.947C181.144 263.733 175.167 257.885 168.278 251.145L172.942 245.926ZM196.723 274.849C195.423 276.303 193.766 275.975 193.487 275.915C193.007 275.812 192.647 275.625 192.505 275.549C192.174 275.371 191.88 275.156 191.694 275.014C191.279 274.697 190.771 274.26 190.22 273.764C189.095 272.753 187.527 271.265 185.621 269.416C181.798 265.71 176.475 260.423 170.312 254.302L175.015 249.12C181.191 255.255 186.477 260.505 190.263 264.175C192.16 266.015 193.648 267.425 194.669 268.342C195.19 268.811 195.528 269.095 195.713 269.236C195.826 269.322 195.77 269.269 195.612 269.184C195.557 269.154 195.268 268.997 194.843 268.906C194.618 268.857 192.998 268.523 191.72 269.954L196.723 274.849ZM170.312 254.302C157.752 241.827 141.649 225.834 127.309 212.348C120.137 205.604 113.438 199.518 107.864 194.826C102.161 190.025 97.982 186.988 95.7279 185.989L98.3815 179.402C101.657 180.854 106.555 184.553 112.143 189.256C117.859 194.068 124.664 200.254 131.874 207.033C146.296 220.596 162.468 236.659 175.015 249.12L170.312 254.302ZM94.5529 180.248L99.7489 174.434L104.753 179.329L99.5565 185.143L94.5529 180.248Z" fill="white"/>
<path fill-rule="evenodd" clip-rule="evenodd" d="M269.151 93.9275C269.548 109.526 252.034 177.915 240.163 224.268C233.715 249.445 228.932 268.121 229.588 268.305C230.203 268.477 234.278 252.095 239.941 229.322C251.465 182.986 269.568 110.193 278.504 96.5494L269.151 93.9275Z" fill="white"/>
<path d="M269.151 93.9275L270.02 90.5369L265.554 89.2849L265.672 93.9492L269.151 93.9275ZM240.163 224.268L243.533 225.213L243.533 225.213L240.163 224.268ZM239.941 229.322L236.565 228.401L239.941 229.322ZM278.504 96.5494L281.417 98.5328L284.073 94.4767L279.372 93.1588L278.504 96.5494ZM265.672 93.9492C265.76 97.4079 264.823 104.239 263.041 113.627C261.282 122.885 258.772 134.29 255.87 146.691C250.067 171.49 242.73 200.139 236.792 223.323L243.533 225.213C249.466 202.045 256.822 173.322 262.645 148.439C265.556 135.999 268.092 124.485 269.877 115.084C271.637 105.814 272.741 98.2464 272.63 93.9058L265.672 93.9492ZM236.792 223.323C233.57 235.904 230.757 246.888 228.832 254.75C227.871 258.675 227.122 261.86 226.652 264.09C226.42 265.192 226.241 266.131 226.143 266.834C226.098 267.161 226.049 267.575 226.048 267.975C226.047 268.145 226.051 268.543 226.162 269.004C226.218 269.233 226.345 269.678 226.654 270.159C226.984 270.672 227.637 271.392 228.72 271.695L230.457 264.914C231.519 265.212 232.154 265.917 232.469 266.406C232.763 266.863 232.877 267.276 232.923 267.463C233.014 267.841 233.008 268.121 233.008 268.138C233.008 268.231 233.001 268.201 233.036 267.951C233.099 267.498 233.236 266.752 233.461 265.684C233.906 263.573 234.632 260.482 235.59 256.568C237.504 248.751 240.307 237.809 243.533 225.213L236.792 223.323ZM228.72 271.695C230.735 272.26 232.028 270.902 232.16 270.767C232.496 270.421 232.698 270.072 232.78 269.925C232.972 269.582 233.122 269.212 233.228 268.935C233.457 268.333 233.719 267.517 234.003 266.565C234.578 264.636 235.335 261.843 236.238 258.377C238.048 251.433 240.488 241.621 243.317 230.243L236.565 228.401C233.731 239.796 231.302 249.562 229.505 256.459C228.605 259.914 227.874 262.607 227.335 264.412C227.062 265.328 226.86 265.942 226.727 266.292C226.651 266.491 226.645 266.477 226.708 266.366C226.724 266.335 226.868 266.071 227.153 265.779C227.232 265.697 228.48 264.36 230.457 264.914L228.72 271.695ZM243.317 230.243C249.081 207.066 256.477 177.328 263.546 151.683C267.082 138.858 270.524 127.096 273.631 117.711C276.788 108.175 279.47 101.505 281.417 98.5328L275.591 94.566C273.07 98.4154 270.138 105.961 267.027 115.359C263.866 124.908 260.387 136.799 256.839 149.67C249.742 175.416 242.325 205.242 236.565 228.401L243.317 230.243ZM279.372 93.1588L270.02 90.5369L268.283 97.3181L277.635 99.9399L279.372 93.1588Z" fill="white"/>
<path fill-rule="evenodd" clip-rule="evenodd" d="M312.664 123.976C309.472 138.028 278.172 194.748 256.958 233.192C245.435 254.073 236.887 269.562 237.436 269.893C237.949 270.203 245.338 256.586 255.609 237.655C276.507 199.139 309.337 138.629 320.472 128.693L312.664 123.976Z" fill="white"/>
<path d="M312.664 123.976L314.355 120.912L310.359 118.498L309.314 123.098L312.664 123.976ZM256.958 233.192L253.962 231.382L256.958 233.192ZM255.609 237.655L258.617 239.443L255.609 237.655ZM320.472 128.693L322.748 131.407L326.374 128.172L322.163 125.629L320.472 128.693ZM309.314 123.098C308.616 126.169 306.238 132.006 302.497 139.955C298.814 147.782 293.966 157.34 288.538 167.693C277.683 188.396 264.573 212.153 253.962 231.382L259.953 235.001C270.556 215.787 283.704 191.962 294.6 171.181C300.047 160.792 304.949 151.132 308.695 143.171C312.384 135.331 315.115 128.809 316.013 124.854L309.314 123.098ZM253.962 231.382C248.204 241.815 243.176 250.928 239.656 257.472C237.899 260.739 236.499 263.402 235.567 265.283C235.107 266.211 234.727 267.016 234.474 267.632C234.357 267.917 234.212 268.293 234.113 268.675C234.071 268.837 233.976 269.226 233.971 269.707C233.968 269.947 233.983 270.413 234.164 270.96C234.358 271.545 234.806 272.39 235.745 272.957L239.127 266.829C240.048 267.385 240.484 268.214 240.669 268.773C240.842 269.295 240.853 269.728 240.851 269.929C240.846 270.331 240.769 270.611 240.763 270.636C240.735 270.745 240.728 270.734 240.815 270.523C240.969 270.147 241.258 269.524 241.702 268.627C242.579 266.858 243.932 264.282 245.684 261.025C249.181 254.522 254.188 245.449 259.953 235.001L253.962 231.382ZM235.745 272.957C237.5 274.018 239.059 273.095 239.247 272.985C239.663 272.74 239.947 272.455 240.062 272.337C240.331 272.06 240.563 271.75 240.723 271.525C241.074 271.033 241.501 270.36 241.973 269.58C242.933 267.994 244.251 265.683 245.852 262.812C249.059 257.058 253.485 248.9 258.617 239.443L252.601 235.867C247.461 245.34 243.058 253.456 239.875 259.167C238.28 262.027 237.013 264.246 236.122 265.718C235.669 266.466 235.354 266.954 235.162 267.222C235.052 267.377 235.062 267.345 235.161 267.243C235.191 267.212 235.404 266.988 235.761 266.778C235.89 266.703 237.403 265.788 239.127 266.829L235.745 272.957ZM258.617 239.443C269.07 220.176 282.48 195.461 294.665 174.323C300.759 163.752 306.525 154.113 311.448 146.515C316.458 138.781 320.362 133.537 322.748 131.407L318.196 125.979C315.015 128.817 310.639 134.863 305.709 142.473C300.691 150.218 294.856 159.977 288.738 170.59C276.499 191.82 263.045 216.618 252.601 235.867L258.617 239.443ZM322.163 125.629L314.355 120.912L310.973 127.041L318.781 131.757L322.163 125.629Z" fill="white"/>
<path fill-rule="evenodd" clip-rule="evenodd" d="M339.351 177.652C333.727 187.93 296.335 224.512 270.992 249.306C257.226 262.774 247.015 272.764 247.38 273.172C247.722 273.555 256.598 264.738 268.938 252.482C294.045 227.545 333.488 188.37 344.547 183.466L339.351 177.652Z" fill="white"/>
<path d="M339.351 177.652L341.853 175.205L338.691 171.667L336.384 175.882L339.351 177.652ZM270.992 249.306L273.324 251.916L270.992 249.306ZM268.938 252.482L266.587 249.891L268.938 252.482ZM344.547 183.466L345.874 186.76L350.39 184.757L347.049 181.019L344.547 183.466ZM336.384 175.882C335.207 178.032 332.097 181.952 327.363 187.261C322.723 192.465 316.772 198.732 310.178 205.482C296.992 218.978 281.337 234.293 268.659 246.697L273.324 251.916C285.989 239.525 301.703 224.152 314.954 210.589C321.579 203.809 327.614 197.454 332.359 192.134C337.009 186.918 340.682 182.412 342.318 179.423L336.384 175.882ZM268.659 246.697C261.783 253.424 255.772 259.306 251.526 263.555C249.408 265.675 247.699 267.42 246.532 268.673C245.959 269.289 245.463 269.843 245.106 270.289C244.944 270.492 244.715 270.789 244.521 271.118C244.439 271.257 244.239 271.608 244.103 272.08C244.046 272.275 243.507 274.085 244.878 275.62L249.882 270.724C251.23 272.233 250.688 274 250.65 274.132C250.532 274.542 250.37 274.811 250.346 274.852C250.269 274.983 250.235 275.011 250.344 274.875C250.53 274.643 250.879 274.245 251.427 273.657C252.503 272.501 254.138 270.83 256.248 268.718C260.458 264.504 266.435 258.656 273.324 251.916L268.659 246.697ZM244.878 275.62C246.178 277.074 247.835 276.746 248.115 276.686C248.594 276.583 248.954 276.396 249.096 276.32C249.428 276.142 249.721 275.927 249.908 275.785C250.322 275.468 250.83 275.03 251.382 274.535C252.507 273.524 254.074 272.036 255.981 270.187C259.804 266.481 265.126 261.194 271.289 255.073L266.587 249.891C260.41 256.026 255.124 261.276 251.339 264.946C249.441 266.786 247.954 268.196 246.933 269.113C246.411 269.582 246.073 269.866 245.889 270.007C245.776 270.093 245.831 270.04 245.989 269.955C246.044 269.925 246.334 269.768 246.759 269.677C246.984 269.628 248.603 269.294 249.882 270.724L244.878 275.62ZM271.289 255.073C283.85 242.598 299.952 226.605 314.293 213.119C321.465 206.375 328.163 200.289 333.737 195.597C339.441 190.796 343.62 187.759 345.874 186.76L343.22 180.173C339.945 181.625 335.046 185.324 329.459 190.027C323.742 194.839 316.937 201.025 309.728 207.804C295.305 221.367 279.133 237.43 266.587 249.891L271.289 255.073ZM347.049 181.019L341.853 175.205L336.849 180.1L342.045 185.914L347.049 181.019Z" fill="white"/>
<path d="M111.107 259.09C111.107 259.09 199.234 330.093 222.049 330.093C244.864 330.093 335.412 259.09 335.412 259.09C361.231 228.026 351.869 83.1965 224.066 84.0034C92.1118 84.8365 78.1388 208.742 111.107 259.09Z" stroke="#1B3557" stroke-width="7"/>
<path d="M153.824 292.168C153.824 292.168 150.194 316.197 150.194 328.993C150.194 341.789 148.983 351.875 153.824 356.716C158.666 361.557 286.552 361.96 291.796 356.716C297.041 351.471 295.024 328.993 295.024 328.993L291.796 292.168" stroke="#1B3557" stroke-width="7"/>
<path d="M170.23 298.623C170.23 298.623 179.381 267.962 222.272 267.962C265.164 267.962 274.314 298.623 274.314 298.623" stroke="#1B3557" stroke-width="7"/>
<path fill-rule="evenodd" clip-rule="evenodd" d="M216.982 84C221.27 98.8695 221.27 171.277 221.27 220.296C221.27 246.826 221.27 266.505 221.95 266.505C222.587 266.505 222.469 249.276 222.306 225.325C221.974 176.427 221.45 99.5103 226.765 84H216.982Z" fill="#1B3557"/>
<path d="M216.982 84V83H215.653L216.021 84.2771L216.982 84ZM221.27 220.296L220.27 220.296L221.27 220.296ZM222.306 225.325L221.306 225.332L222.306 225.325ZM226.765 84L227.711 84.3241L228.165 83H226.765V84ZM216.021 84.2771C217.058 87.8715 217.859 95.0742 218.463 104.738C219.065 114.363 219.467 126.324 219.734 139.362C220.27 165.438 220.27 195.784 220.27 220.296L222.27 220.296C222.27 195.789 222.27 165.421 221.734 139.321C221.466 126.272 221.064 114.279 220.459 104.614C219.857 94.9875 219.051 87.5632 217.943 83.7229L216.021 84.2771ZM220.27 220.296C220.27 233.559 220.27 245.117 220.355 253.359C220.397 257.479 220.461 260.781 220.558 263.058C220.606 264.192 220.662 265.092 220.731 265.717C220.765 266.023 220.806 266.301 220.859 266.518C220.884 266.618 220.926 266.767 221.002 266.912C221.04 266.983 221.112 267.107 221.238 267.223C221.371 267.347 221.613 267.505 221.95 267.505V265.505C222.265 265.505 222.486 265.653 222.599 265.758C222.704 265.855 222.756 265.95 222.774 265.983C222.81 266.052 222.813 266.087 222.801 266.037C222.78 265.953 222.751 265.782 222.719 265.498C222.658 264.943 222.603 264.098 222.556 262.973C222.461 260.731 222.397 257.455 222.355 253.339C222.27 245.109 222.27 233.563 222.27 220.296L220.27 220.296ZM221.95 267.505C222.574 267.505 222.847 267.002 222.882 266.939C222.962 266.795 223.005 266.649 223.029 266.556C223.081 266.353 223.118 266.099 223.148 265.828C223.21 265.273 223.258 264.477 223.296 263.477C223.373 261.469 223.413 258.553 223.428 254.901C223.458 247.593 223.388 237.291 223.306 225.319L221.306 225.332C221.388 237.31 221.458 247.598 221.428 254.893C221.413 258.541 221.373 261.429 221.298 263.4C221.26 264.39 221.214 265.127 221.161 265.608C221.133 265.855 221.108 265.994 221.092 266.056C221.082 266.094 221.089 266.048 221.132 265.97C221.154 265.932 221.211 265.835 221.321 265.739C221.44 265.635 221.655 265.505 221.95 265.505V267.505ZM223.306 225.319C223.14 200.867 222.926 169.426 223.418 142.16C223.664 128.527 224.086 115.949 224.777 105.817C225.472 95.6379 226.432 88.0562 227.711 84.3241L225.819 83.6759C224.44 87.699 223.473 95.5481 222.782 105.681C222.087 115.862 221.664 128.477 221.418 142.124C220.926 169.419 221.14 200.886 221.306 225.332L223.306 225.319ZM226.765 83H216.982V85H226.765V83Z" fill="#1B3557"/>
<path fill-rule="evenodd" clip-rule="evenodd" d="M173.128 86.7669C173.13 86.7777 173.133 86.7885 173.136 86.7993L173.128 86.7669ZM172.45 93.1566C172.053 108.755 189.568 177.144 201.439 223.497C207.887 248.674 212.67 267.35 212.013 267.534C211.398 267.706 207.324 251.324 201.66 228.551C190.137 182.215 172.034 109.422 163.098 95.7785L172.45 93.1566Z" fill="#1B3557"/>
<path d="M173.128 86.7669L172.165 87.0369L174.09 86.4933L173.128 86.7669ZM173.136 86.7993L174.1 86.5331L172.173 87.0693L173.136 86.7993ZM172.45 93.1566L172.202 92.1879L173.478 91.8302L173.444 93.1628L172.45 93.1566ZM201.439 223.497L200.476 223.767L201.439 223.497ZM201.66 228.551L202.625 228.288L201.66 228.551ZM163.098 95.7785L162.266 96.3452L161.507 95.1863L162.85 94.8098L163.098 95.7785ZM174.09 86.4933C174.093 86.5065 174.096 86.5198 174.1 86.5331L172.172 87.0656C172.17 87.0572 172.168 87.0489 172.166 87.0406L174.09 86.4933ZM172.173 87.0693L172.165 87.0369L174.091 86.497L174.099 86.5294L172.173 87.0693ZM173.444 93.1628C173.348 96.9365 174.345 104.03 176.119 113.376C177.887 122.685 180.407 134.129 183.312 146.544C189.122 171.374 196.466 200.049 202.402 223.227L200.476 223.767C194.541 200.593 187.192 171.897 181.376 147.044C178.469 134.618 175.942 123.143 174.166 113.793C172.398 104.48 171.354 97.1761 171.456 93.1504L173.444 93.1628ZM202.402 223.227C205.625 235.813 208.435 246.783 210.356 254.628C211.316 258.549 212.057 261.701 212.518 263.888C212.747 264.978 212.911 265.849 212.997 266.462C213.038 266.762 213.067 267.039 213.068 267.262C213.068 267.366 213.064 267.521 213.025 267.683C213.005 267.763 212.965 267.902 212.871 268.048C212.771 268.203 212.578 268.414 212.261 268.503L211.765 266.565C211.469 266.648 211.294 266.844 211.209 266.976C211.131 267.098 211.103 267.204 211.093 267.243C211.074 267.321 211.079 267.359 211.079 267.309C211.079 267.226 211.066 267.059 211.027 266.781C210.952 266.239 210.8 265.424 210.572 264.344C210.119 262.191 209.384 259.066 208.425 255.147C206.507 247.315 203.701 236.358 200.476 223.767L202.402 223.227ZM212.261 268.503C211.672 268.668 211.286 268.272 211.23 268.214C211.116 268.097 211.037 267.966 210.99 267.883C210.889 267.702 210.79 267.469 210.695 267.22C210.5 266.708 210.26 265.964 209.98 265.026C209.418 263.14 208.67 260.383 207.768 256.921C205.963 249.994 203.527 240.198 200.696 228.814L202.625 228.288C205.457 239.677 207.89 249.459 209.692 256.373C210.593 259.832 211.333 262.561 211.885 264.41C212.162 265.339 212.385 266.025 212.553 266.465C212.639 266.692 212.697 266.815 212.725 266.866C212.744 266.899 212.724 266.854 212.661 266.789C212.657 266.785 212.316 266.411 211.765 266.565L212.261 268.503ZM200.696 228.814C194.934 205.644 187.53 175.874 180.451 150.193C176.911 137.352 173.455 125.544 170.329 116.1C167.189 106.613 164.418 99.6309 162.266 96.3452L163.93 95.2118C166.246 98.748 169.089 105.981 172.216 115.428C175.358 124.919 178.824 136.763 182.367 149.618C189.454 175.328 196.864 205.123 202.625 228.288L200.696 228.814ZM162.85 94.8098L172.202 92.1879L172.698 94.1254L163.346 96.7472L162.85 94.8098Z" fill="#1B3557"/>
<path fill-rule="evenodd" clip-rule="evenodd" d="M128.938 123.205C132.131 137.257 163.43 193.977 184.644 232.421C196.167 253.302 204.715 268.791 204.166 269.122C203.653 269.432 196.264 255.815 185.993 236.884C165.095 198.368 132.265 137.858 121.13 127.922L128.938 123.205Z" fill="#1B3557"/>
<path d="M128.938 123.205L128.455 122.33L129.597 121.64L129.896 122.955L128.938 123.205ZM184.644 232.421L185.5 231.904L184.644 232.421ZM185.993 236.884L185.134 237.395L185.134 237.395L185.993 236.884ZM121.13 127.922L120.48 128.698L119.444 127.773L120.647 127.047L121.13 127.922ZM129.896 122.955C130.665 126.341 133.169 132.423 136.891 140.333C140.597 148.208 145.464 157.802 150.899 168.168C161.769 188.898 174.892 212.68 185.5 231.904L183.789 232.938C173.183 213.718 160.049 189.917 149.167 169.164C143.727 158.788 138.844 149.165 135.121 141.252C131.413 133.373 128.808 127.095 127.981 123.456L129.896 122.955ZM185.5 231.904C191.261 242.342 196.281 251.44 199.793 257.97C201.548 261.233 202.932 263.866 203.844 265.706C204.299 266.623 204.645 267.363 204.863 267.893C204.97 268.152 205.061 268.398 205.114 268.605C205.139 268.7 205.172 268.849 205.174 269.015C205.175 269.098 205.169 269.243 205.115 269.408C205.056 269.584 204.924 269.832 204.649 269.998L203.683 268.247C203.426 268.402 203.306 268.632 203.256 268.783C203.21 268.923 203.208 269.036 203.208 269.079C203.209 269.165 203.225 269.207 203.214 269.165C203.197 269.098 203.149 268.957 203.052 268.72C202.862 268.258 202.541 267.57 202.091 266.662C201.195 264.853 199.824 262.246 198.071 258.985C194.565 252.467 189.551 243.38 183.789 232.938L185.5 231.904ZM204.649 269.998C204.136 270.308 203.675 270.041 203.6 269.997C203.46 269.915 203.353 269.812 203.29 269.747C203.153 269.605 203.008 269.417 202.865 269.217C202.571 268.806 202.184 268.199 201.718 267.43C200.783 265.885 199.483 263.607 197.885 260.739C194.686 255.001 190.268 246.858 185.134 237.395L186.852 236.373C191.989 245.841 196.401 253.972 199.593 259.698C201.189 262.562 202.475 264.814 203.39 266.326C203.85 267.086 204.205 267.64 204.454 267.988C204.582 268.168 204.658 268.258 204.69 268.291C204.712 268.314 204.677 268.272 204.596 268.224C204.58 268.215 204.164 267.956 203.683 268.247L204.649 269.998ZM185.134 237.395C174.684 218.134 161.258 193.39 149.054 172.219C142.951 161.633 137.16 151.951 132.204 144.3C127.222 136.611 123.15 131.08 120.48 128.698L121.78 127.147C124.677 129.732 128.885 135.491 133.844 143.146C138.827 150.838 144.638 160.554 150.747 171.152C162.967 192.349 176.405 217.118 186.852 236.373L185.134 237.395ZM120.647 127.047L128.455 122.33L129.422 124.081L121.613 128.798L120.647 127.047Z" fill="#1B3557"/>
<path fill-rule="evenodd" clip-rule="evenodd" d="M102.251 176.882C107.875 187.159 145.267 223.741 170.61 248.536C184.375 262.003 194.586 271.993 194.222 272.401C193.88 272.784 185.003 263.967 172.663 251.711C147.557 226.774 108.114 187.599 97.0547 182.695L102.251 176.882Z" fill="#1B3557"/>
<path d="M102.251 176.882L101.536 176.182L102.439 175.171L103.098 176.376L102.251 176.882ZM170.61 248.536L169.944 249.281L170.61 248.536ZM172.663 251.711L173.335 250.971L173.335 250.971L172.663 251.711ZM97.0547 182.695L96.6756 183.636L95.3852 183.064L96.3399 181.996L97.0547 182.695ZM103.098 176.376C104.439 178.825 107.75 182.955 112.454 188.23C117.132 193.476 123.113 199.774 129.718 206.535C142.927 220.055 158.603 235.391 171.276 247.79L169.944 249.281C157.274 236.886 141.582 221.533 128.353 207.994C121.74 201.225 115.734 194.901 111.027 189.622C106.347 184.374 102.875 180.076 101.403 177.387L103.098 176.376ZM171.276 247.79C178.157 254.522 184.156 260.391 188.389 264.628C190.504 266.745 192.187 268.464 193.321 269.682C193.885 270.288 194.329 270.787 194.625 271.156C194.768 271.335 194.903 271.516 195 271.68C195.044 271.756 195.115 271.885 195.16 272.042C195.183 272.12 195.336 272.653 194.936 273.101L193.507 271.702C193.13 272.124 193.285 272.613 193.29 272.628C193.317 272.723 193.35 272.771 193.336 272.747C193.316 272.714 193.256 272.626 193.128 272.466C192.881 272.158 192.48 271.704 191.923 271.106C190.815 269.915 189.153 268.218 187.04 266.103C182.817 261.876 176.828 256.017 169.944 249.281L171.276 247.79ZM194.936 273.101C194.557 273.525 194.07 273.433 193.971 273.412C193.815 273.378 193.686 273.314 193.615 273.276C193.458 273.192 193.289 273.072 193.129 272.95C192.797 272.697 192.349 272.314 191.809 271.828C190.721 270.85 189.182 269.39 187.279 267.544C183.469 263.851 178.16 258.577 171.992 252.451L173.335 250.971C179.507 257.101 184.806 262.364 188.605 266.047C190.506 267.89 192.022 269.328 193.08 270.279C193.612 270.757 194.011 271.096 194.277 271.299C194.342 271.349 194.395 271.387 194.436 271.415C194.456 271.428 194.472 271.439 194.484 271.446C194.49 271.45 194.495 271.453 194.498 271.454C194.501 271.456 194.503 271.457 194.503 271.457C194.503 271.457 194.5 271.456 194.496 271.454C194.492 271.452 194.485 271.449 194.475 271.444C194.457 271.437 194.417 271.421 194.358 271.409C194.314 271.399 193.865 271.302 193.507 271.702L194.936 273.101ZM171.992 252.451C159.436 239.981 143.309 223.963 128.939 210.45C121.754 203.693 115.017 197.572 109.392 192.837C103.73 188.071 99.2945 184.798 96.6756 183.636L97.4338 181.754C100.344 183.045 104.986 186.507 110.615 191.245C116.28 196.014 123.047 202.165 130.243 208.932C144.636 222.467 160.784 238.504 173.335 250.971L171.992 252.451ZM96.3399 181.996L101.536 176.182L102.966 177.581L97.7695 183.395L96.3399 181.996Z" fill="#1B3557"/>
<path fill-rule="evenodd" clip-rule="evenodd" d="M269.151 93.9275C269.548 109.526 252.034 177.915 240.163 224.268C233.715 249.445 228.932 268.121 229.588 268.305C230.203 268.477 234.278 252.095 239.941 229.322C251.465 182.986 269.568 110.193 278.504 96.5494L269.151 93.9275Z" fill="#1B3557"/>
<path d="M269.151 93.9275L269.399 92.9588L268.123 92.601L268.157 93.9337L269.151 93.9275ZM240.163 224.268L241.125 224.538L240.163 224.268ZM239.941 229.322L238.977 229.059L239.941 229.322ZM278.504 96.5494L279.336 97.1161L280.095 95.9572L278.752 95.5806L278.504 96.5494ZM268.157 93.9337C268.253 97.7074 267.257 104.801 265.482 114.147C263.714 123.456 261.195 134.9 258.29 147.315C252.48 172.144 245.136 200.819 239.2 223.998L241.125 224.538C247.06 201.364 254.41 172.668 260.225 147.815C263.133 135.389 265.66 123.913 267.435 114.564C269.204 105.251 270.248 97.9469 270.145 93.9213L268.157 93.9337ZM239.2 223.998C235.976 236.584 233.167 247.554 231.246 255.399C230.286 259.32 229.544 262.472 229.084 264.659C228.855 265.749 228.691 266.62 228.605 267.233C228.563 267.533 228.534 267.81 228.534 268.033C228.533 268.136 228.538 268.292 228.577 268.454C228.596 268.534 228.637 268.673 228.731 268.819C228.83 268.974 229.024 269.185 229.34 269.273L229.836 267.336C230.133 267.419 230.308 267.615 230.392 267.746C230.471 267.869 230.499 267.975 230.508 268.013C230.527 268.092 230.522 268.129 230.522 268.08C230.523 267.997 230.536 267.829 230.574 267.552C230.65 267.01 230.802 266.195 231.029 265.115C231.483 262.961 232.217 259.836 233.177 255.918C235.095 248.086 237.901 237.129 241.125 224.538L239.2 223.998ZM229.34 269.273C229.93 269.439 230.315 269.043 230.371 268.985C230.486 268.867 230.565 268.737 230.611 268.654C230.713 268.473 230.811 268.24 230.906 267.991C231.101 267.479 231.341 266.735 231.621 265.796C232.184 263.911 232.931 261.154 233.833 257.692C235.639 250.764 238.075 240.969 240.906 229.585L238.977 229.059C236.144 240.448 233.711 250.23 231.91 257.144C231.008 260.603 230.268 263.332 229.717 265.181C229.44 266.11 229.216 266.796 229.049 267.236C228.962 267.462 228.905 267.586 228.876 267.637C228.858 267.67 228.878 267.625 228.941 267.56C228.945 267.556 229.285 267.182 229.836 267.336L229.34 269.273ZM240.906 229.585C246.668 206.415 254.072 176.645 261.151 150.964C264.691 138.122 268.146 126.315 271.272 116.871C274.413 107.384 277.184 100.402 279.336 97.1161L277.671 95.9827C275.355 99.5189 272.513 106.752 269.385 116.199C266.244 125.689 262.778 137.534 259.235 150.389C252.147 176.099 244.738 205.893 238.977 229.059L240.906 229.585ZM278.752 95.5806L269.399 92.9588L268.903 94.8962L278.256 97.5181L278.752 95.5806Z" fill="#1B3557"/>
<path fill-rule="evenodd" clip-rule="evenodd" d="M312.664 123.976C309.472 138.028 278.172 194.748 256.958 233.192C245.435 254.073 236.887 269.562 237.436 269.893C237.949 270.203 245.338 256.586 255.609 237.655C276.507 199.139 309.337 138.629 320.472 128.693L312.664 123.976Z" fill="#1B3557"/>
<path d="M312.664 123.976L313.147 123.101L312.005 122.411L311.707 123.725L312.664 123.976ZM256.958 233.192L256.102 232.675L256.958 233.192ZM255.609 237.655L256.468 238.166L255.609 237.655ZM320.472 128.693L321.122 129.469L322.158 128.544L320.955 127.818L320.472 128.693ZM311.707 123.725C310.937 127.112 308.433 133.194 304.711 141.103C301.005 148.979 296.138 158.573 290.703 168.938C279.833 189.669 266.71 213.45 256.102 232.675L257.814 233.709C268.419 214.489 281.553 190.688 292.435 169.935C297.876 159.559 302.758 149.936 306.481 142.022C310.189 134.144 312.794 127.866 313.621 124.227L311.707 123.725ZM256.102 232.675C250.341 243.113 245.321 252.211 241.809 258.741C240.054 262.004 238.67 264.636 237.758 266.477C237.303 267.394 236.957 268.134 236.739 268.664C236.633 268.923 236.541 269.169 236.488 269.375C236.463 269.471 236.43 269.62 236.428 269.786C236.427 269.869 236.433 270.014 236.487 270.179C236.546 270.355 236.678 270.603 236.953 270.769L237.919 269.018C238.176 269.173 238.296 269.403 238.346 269.554C238.392 269.694 238.394 269.806 238.394 269.85C238.393 269.936 238.377 269.977 238.388 269.936C238.405 269.869 238.453 269.728 238.55 269.491C238.74 269.029 239.061 268.341 239.511 267.433C240.407 265.624 241.778 263.017 243.531 259.756C247.037 253.238 252.051 244.151 257.814 233.709L256.102 232.675ZM236.953 270.769C237.466 271.079 237.927 270.812 238.002 270.768C238.142 270.686 238.249 270.583 238.312 270.518C238.449 270.376 238.594 270.188 238.737 269.988C239.031 269.576 239.418 268.97 239.884 268.201C240.819 266.655 242.119 264.378 243.717 261.51C246.916 255.772 251.334 247.629 256.468 238.166L254.75 237.144C249.613 246.612 245.201 254.743 242.009 260.469C240.413 263.333 239.127 265.585 238.212 267.097C237.752 267.857 237.397 268.411 237.148 268.759C237.02 268.938 236.944 269.029 236.912 269.062C236.89 269.085 236.925 269.043 237.006 268.995C237.022 268.986 237.438 268.727 237.919 269.018L236.953 270.769ZM256.468 238.166C266.918 218.905 280.344 194.16 292.548 172.99C298.651 162.404 304.442 152.722 309.398 145.071C314.38 137.382 318.452 131.851 321.122 129.469L319.822 127.918C316.925 130.503 312.717 136.262 307.759 143.916C302.775 151.609 296.964 161.325 290.855 171.923C278.635 193.12 265.197 217.888 254.75 237.144L256.468 238.166ZM320.955 127.818L313.147 123.101L312.18 124.852L319.989 129.569L320.955 127.818Z" fill="#1B3557"/>
<path fill-rule="evenodd" clip-rule="evenodd" d="M339.351 177.652C333.727 187.93 296.335 224.512 270.992 249.306C257.226 262.774 247.015 272.764 247.38 273.172C247.722 273.555 256.598 264.738 268.938 252.482C294.045 227.545 333.488 188.37 344.547 183.466L339.351 177.652Z" fill="#1B3557"/>
<path d="M339.351 177.652L340.066 176.953L339.162 175.942L338.503 177.147L339.351 177.652ZM270.992 249.306L271.658 250.052L270.992 249.306ZM268.938 252.482L268.266 251.742L268.938 252.482ZM344.547 183.466L344.926 184.407L346.216 183.835L345.262 182.767L344.547 183.466ZM338.503 177.147C337.163 179.596 333.852 183.726 329.147 189.001C324.47 194.247 318.489 200.545 311.884 207.306C298.674 220.826 282.999 236.162 270.325 248.561L271.658 250.052C284.328 237.657 300.02 222.304 313.248 208.765C319.862 201.996 325.867 195.672 330.575 190.393C335.255 185.145 338.727 180.847 340.199 178.158L338.503 177.147ZM270.325 248.561C263.444 255.293 257.445 261.162 253.212 265.399C251.097 267.516 249.414 269.235 248.28 270.453C247.716 271.059 247.273 271.558 246.977 271.927C246.834 272.106 246.698 272.287 246.602 272.451C246.557 272.527 246.487 272.656 246.441 272.813C246.419 272.891 246.265 273.424 246.665 273.871L248.095 272.473C248.472 272.895 248.316 273.384 248.312 273.399C248.284 273.494 248.252 273.542 248.266 273.518C248.285 273.485 248.346 273.397 248.473 273.237C248.72 272.929 249.122 272.475 249.679 271.877C250.787 270.686 252.449 268.989 254.561 266.874C258.784 262.647 264.773 256.788 271.658 250.052L270.325 248.561ZM246.665 273.871C247.044 274.296 247.531 274.204 247.631 274.183C247.787 274.149 247.915 274.085 247.987 274.047C248.143 273.963 248.312 273.843 248.472 273.721C248.805 273.467 249.252 273.085 249.793 272.599C250.881 271.621 252.42 270.161 254.323 268.315C258.133 264.622 263.442 259.348 269.61 253.222L268.266 251.742C262.095 257.872 256.796 263.135 252.997 266.818C251.096 268.661 249.58 270.099 248.522 271.05C247.99 271.528 247.591 271.867 247.324 272.07C247.259 272.12 247.207 272.158 247.166 272.186C247.145 272.199 247.129 272.21 247.117 272.217C247.112 272.221 247.107 272.224 247.104 272.225C247.101 272.227 247.099 272.228 247.099 272.228C247.099 272.228 247.101 272.227 247.106 272.225C247.11 272.223 247.117 272.219 247.127 272.215C247.144 272.208 247.185 272.192 247.243 272.18C247.288 272.17 247.737 272.073 248.095 272.473L246.665 273.871ZM269.61 253.222C282.165 240.752 298.293 224.734 312.662 211.221C319.848 204.464 326.584 198.342 332.209 193.608C337.871 188.842 342.307 185.568 344.926 184.407L344.168 182.525C341.257 183.816 336.616 187.278 330.987 192.016C325.321 196.785 318.554 202.936 311.358 209.703C296.965 223.237 280.818 239.275 268.266 251.742L269.61 253.222ZM345.262 182.767L340.066 176.953L338.636 178.352L343.832 184.166L345.262 182.767Z" fill="#1B3557"/>
</svg>
