<svg width="128" height="128" viewBox="0 0 128 128" fill="none" xmlns="http://www.w3.org/2000/svg">
<circle cx="64" cy="64" r="64" fill="#1B3557"/>
<path d="M33.5655 73.8262C33.5655 73.8262 57.6376 93.2208 63.8695 93.2208C70.1015 93.2208 94.8348 73.8262 94.8348 73.8262C101.887 65.341 99.3301 25.7805 64.4205 26.0009C28.3769 26.2285 24.5601 60.0734 33.5655 73.8262Z" stroke="white" stroke-width="15"/>
<path d="M45.2336 82.8615C45.2336 82.8615 44.2418 89.4252 44.2418 92.9204C44.2418 96.4156 43.9112 99.1705 45.2336 100.493C46.5559 101.815 81.4882 101.925 82.9208 100.493C84.3533 99.0603 83.8024 92.9204 83.8024 92.9204L82.9208 82.8615" stroke="white" stroke-width="13"/>
<path d="M49.7153 84.6246C49.7153 84.6246 52.2147 76.2497 63.9307 76.2497C75.6466 76.2497 78.146 84.6246 78.146 84.6246" stroke="white" stroke-width="13"/>
<path fill-rule="evenodd" clip-rule="evenodd" d="M61.7583 26.0001C62.9296 30.0616 62.9296 49.8398 62.9295 63.2296C62.9295 70.4762 62.9295 75.8516 63.1152 75.8516C63.2892 75.8516 63.2571 71.1455 63.2126 64.6034C63.1218 51.2466 62.9788 30.2366 64.4305 26.0001H61.7583Z" fill="white"/>
<path d="M61.7583 26.0001V21.5001H55.7771L57.4345 27.247L61.7583 26.0001ZM62.9295 63.2296L58.4295 63.2296L62.9295 63.2296ZM63.2126 64.6034L58.7127 64.634L63.2126 64.6034ZM64.4305 26.0001L68.6875 27.4588L70.7293 21.5001H64.4305V26.0001ZM57.4345 27.247C57.5678 27.7091 57.7742 29.2083 57.9442 31.9285C58.1032 34.4713 58.2115 37.671 58.2841 41.2092C58.4294 48.2803 58.4296 56.5241 58.4295 63.2296L67.4295 63.2296C67.4296 56.5453 67.4298 48.2051 67.2822 41.0243C67.2085 37.4366 67.0972 34.0933 66.9267 31.3669C66.7673 28.818 66.5345 26.3218 66.0821 24.7531L57.4345 27.247ZM58.4295 63.2296C58.4295 66.8427 58.4295 70.026 58.453 72.3045C58.4646 73.4361 58.4825 74.3951 58.5119 75.0887C58.5258 75.4188 58.5459 75.7814 58.581 76.0998C58.5953 76.2289 58.6303 76.5316 58.7148 76.8724C58.7478 77.0058 58.8557 77.4347 59.1124 77.9247C59.2389 78.166 59.5226 78.6604 60.0441 79.1448C60.5989 79.6602 61.644 80.3516 63.1152 80.3516V71.3516C64.5806 71.3516 65.6199 72.0405 66.1691 72.5506C66.6851 73.0298 66.9632 73.5164 67.0842 73.7473C67.3301 74.2165 67.4274 74.6143 67.4503 74.7066C67.4881 74.8591 67.5068 74.9737 67.5139 75.0188C67.5223 75.0724 67.5261 75.1066 67.5268 75.1132C67.528 75.1243 67.5249 75.0975 67.5197 75.0169C67.5148 74.9413 67.5094 74.8395 67.5038 74.7083C67.4809 74.1675 67.464 73.3297 67.4525 72.2117C67.4296 69.9908 67.4295 66.8631 67.4295 63.2296L58.4295 63.2296ZM63.1152 80.3516C65.8384 80.3516 66.9898 78.1584 67.0679 78.0174C67.3487 77.5102 67.4662 77.0629 67.5026 76.922C67.5942 76.567 67.6301 76.2557 67.6437 76.1326C67.6781 75.823 67.6955 75.4805 67.7068 75.1859C67.7307 74.5609 67.7417 73.7035 67.7458 72.6992C67.7541 70.6744 67.7347 67.8329 67.7125 64.5728L58.7127 64.634C58.7351 67.916 58.7539 70.6986 58.7459 72.6623C58.7418 73.6524 58.731 74.3804 58.7134 74.8422C58.7038 75.091 58.6956 75.1674 58.6986 75.1407C58.7002 75.1259 58.7052 75.0826 58.7153 75.0195C58.7239 74.9653 58.7454 74.8384 58.7883 74.6723C58.8154 74.5675 58.9232 74.1474 59.1939 73.6584C59.3297 73.4131 59.6267 72.9274 60.1629 72.459C60.7404 71.9546 61.7482 71.3516 63.1152 71.3516V80.3516ZM67.7125 64.5728C67.667 57.8823 67.6092 49.3484 67.7424 41.9628C67.809 38.2666 67.9227 34.9117 68.1046 32.2472C68.1956 30.9135 68.3007 29.7987 68.4178 28.9251C68.4761 28.4898 68.5338 28.1422 68.5877 27.8752C68.6143 27.7432 68.6379 27.6416 68.6571 27.5669C68.6767 27.4906 68.688 27.4575 68.6875 27.4588L60.1735 24.5414C59.5862 26.2554 59.3077 28.9646 59.1255 31.6344C58.9286 34.5183 58.8116 38.045 58.7438 41.8005C58.6083 49.3182 58.6674 57.9676 58.7127 64.634L67.7125 64.5728ZM64.4305 21.5001H61.7583V30.5001H64.4305V21.5001Z" fill="white"/>
<path fill-rule="evenodd" clip-rule="evenodd" d="M49.5945 28.5012C49.4861 32.7621 54.2702 51.4426 57.5128 64.1038C59.2741 70.9809 60.5806 76.0822 60.4012 76.1325C60.2332 76.1796 59.1203 71.7048 57.5733 65.4843C54.4257 52.8277 49.4808 32.9443 47.0399 29.2173L49.5945 28.5012Z" fill="white"/>
<path d="M49.5945 28.5012L48.4781 24.1418L54.22 22.5321L54.0675 28.529L49.5945 28.5012ZM57.5128 64.1038L61.8458 62.8891L57.5128 64.1038ZM57.5733 65.4843L61.9139 64.2999L57.5733 65.4843ZM47.0399 29.2173L43.2948 31.7673L39.8794 26.5524L45.9235 24.858L47.0399 29.2173ZM54.0675 28.529C54.0548 29.0273 54.2265 30.5204 54.7248 33.144C55.1914 35.6012 55.8642 38.6608 56.6523 42.0288C58.2274 48.76 60.2218 56.5481 61.8458 62.8891L53.1799 65.3186C51.5613 58.9983 49.5422 51.1156 47.9417 44.2759C47.1421 40.8585 46.4365 37.6578 45.9352 35.0184C45.4656 32.5453 45.08 30.1055 45.1215 28.4733L54.0675 28.529ZM61.8458 62.8891C62.7238 66.3175 63.4979 69.3397 64.0293 71.5096C64.2931 72.587 64.5095 73.5046 64.6505 74.174C64.7174 74.492 64.7873 74.8469 64.8317 75.1654C64.8496 75.2942 64.8909 75.601 64.8921 75.9601C64.8926 76.1015 64.8925 76.5528 64.7596 77.104C64.6937 77.3773 64.5362 77.9327 64.1465 78.5393C63.7305 79.187 62.8993 80.1045 61.5176 80.4918L59.2848 71.7732C57.9087 72.159 57.0824 73.0725 56.6705 73.7137C56.285 74.3138 56.131 74.8603 56.0678 75.1222C55.9404 75.6507 55.9429 76.0697 55.9432 76.1693C55.9438 76.3316 55.954 76.4514 55.9585 76.4994C55.9638 76.5562 55.9688 76.5927 55.97 76.6012C55.9704 76.6042 55.9539 76.4986 55.896 76.2238C55.7874 75.7078 55.6008 74.9107 55.3403 73.8469C54.8229 71.7343 54.0631 68.7673 53.1799 65.3186L61.8458 62.8891ZM61.5176 80.4918C58.9466 81.2126 57.3067 79.4771 57.1639 79.3304C56.7575 78.9128 56.5275 78.5069 56.455 78.3776C56.2737 78.0538 56.1596 77.7579 56.1156 77.6425C56.0045 77.3511 55.9028 77.0252 55.82 76.7476C55.644 76.1575 55.4243 75.344 55.1761 74.3918C54.6757 72.4712 54.0035 69.768 53.2327 66.6686L61.9139 64.2999C62.6901 67.4211 63.3479 70.0656 63.8326 71.9258C64.0771 72.8639 64.2637 73.5491 64.392 73.9791C64.4613 74.2117 64.4862 74.2762 64.4742 74.2448C64.4683 74.2292 64.4517 74.1864 64.4251 74.1257C64.4022 74.0735 64.3479 73.9531 64.2625 73.8005C64.2078 73.7029 63.9937 73.3202 63.6015 72.9172C63.4728 72.785 61.8453 71.0554 59.2848 71.7732L61.5176 80.4918ZM53.2327 66.6686C51.6559 60.3285 49.6467 52.2505 47.7297 45.2963C46.7704 41.8162 45.8483 38.6692 45.027 36.1883C44.616 34.9467 44.2443 33.9148 43.9193 33.1128C43.7573 32.7133 43.617 32.3959 43.4996 32.1531C43.4415 32.0331 43.3934 31.9407 43.3558 31.8723C43.3373 31.8385 43.3225 31.813 43.3117 31.7948C43.3063 31.7858 43.3022 31.779 43.2992 31.7744C43.2978 31.772 43.2967 31.7703 43.2959 31.7691C43.2952 31.7679 43.2948 31.7673 43.2948 31.7673L50.785 26.6673C51.7644 28.1627 52.6921 30.6675 53.5187 33.1647C54.4095 35.8557 55.378 39.1694 56.3534 42.7081C58.306 49.7915 60.343 57.9835 61.9139 64.2999L53.2327 66.6686ZM45.9235 24.858L48.4781 24.1418L50.7109 32.8605L48.1563 33.5766L45.9235 24.858Z" fill="white"/>
<path fill-rule="evenodd" clip-rule="evenodd" d="M37.709 36.7092C38.5812 40.5477 47.1305 56.0406 52.9251 66.5414C56.0726 72.2451 58.4073 76.476 58.2576 76.5664C58.1173 76.6512 56.0991 72.9315 53.2935 67.7606C47.5853 57.2399 38.6179 40.712 35.5762 37.9976L37.709 36.7092Z" fill="white"/>
<path d="M37.709 36.7092L35.5348 32.7693L40.672 29.6661L42.0157 35.58L37.709 36.7092ZM52.9251 66.5414L49.0733 68.8681L52.9251 66.5414ZM53.2935 67.7606L49.4263 70.0592L53.2935 67.7606ZM35.5762 37.9976L32.6498 41.4871L27.9887 37.3276L33.402 34.0576L35.5762 37.9976ZM42.0157 35.58C42.1048 35.9721 42.5759 37.219 43.6238 39.4458C44.598 41.5161 45.8952 44.075 47.3685 46.8848C50.3127 52.4999 53.8743 58.9546 56.7769 64.2146L49.0733 68.8681C46.1813 63.6273 42.571 57.0852 39.5738 51.369C38.0764 48.5132 36.7106 45.8229 35.6554 43.5806C34.6739 41.4947 33.7492 39.3656 33.4022 37.8385L42.0157 35.58ZM56.7769 64.2146C58.3455 67.0571 59.7302 69.5663 60.7029 71.3749C61.1854 72.2721 61.5918 73.0436 61.8745 73.614C62.008 73.8836 62.1576 74.1953 62.2765 74.4847C62.324 74.6004 62.4407 74.8882 62.5317 75.2406C62.5677 75.38 62.6806 75.8246 62.6871 76.4033C62.6903 76.6919 62.673 77.2742 62.4446 77.9647C62.2 78.704 61.6302 79.7824 60.4317 80.5064L56.0834 72.6265C54.8896 73.3476 54.3233 74.4212 54.0809 75.1537C53.8548 75.8373 53.8385 76.4108 53.8416 76.6886C53.8479 77.2455 53.9558 77.6606 53.9821 77.7626C54.0242 77.9258 54.0655 78.0446 54.0833 78.0942C54.104 78.1522 54.1196 78.1906 54.1246 78.2026C54.1321 78.221 54.0993 78.1428 53.9858 77.9139C53.7745 77.4873 53.4285 76.8276 52.9527 75.9429C52.0086 74.1875 50.6522 71.7293 49.0733 68.8681L56.7769 64.2146ZM60.4317 80.5064C58.1907 81.8601 56.2096 80.6772 55.9984 80.5531C55.4933 80.2564 55.1639 79.921 55.0593 79.8133C54.7989 79.5453 54.6132 79.2874 54.544 79.1905C54.3674 78.9433 54.1944 78.6653 54.0556 78.436C53.7585 77.9453 53.3726 77.2673 52.9326 76.478C52.0442 74.8844 50.8236 72.6345 49.4263 70.0592L57.1607 65.462C58.569 68.0576 59.7602 70.253 60.6174 71.7908C61.0502 72.5671 61.3704 73.1264 61.579 73.4709C61.6929 73.6591 61.7225 73.6983 61.6941 73.6585C61.6821 73.6416 61.6527 73.6011 61.609 73.5461C61.571 73.4983 61.4849 73.3921 61.3598 73.2633C61.2783 73.1795 60.9685 72.8608 60.4794 72.5735C60.2843 72.4589 58.3156 71.2781 56.0834 72.6265L60.4317 80.5064ZM49.4263 70.0592C46.5663 64.7879 42.9258 58.0786 39.6244 52.3517C37.9721 49.4854 36.432 46.9128 35.1359 44.9121C34.4871 43.9107 33.9244 43.0913 33.4581 42.4677C33.2259 42.1571 33.0341 41.9171 32.8815 41.7394C32.7211 41.5525 32.6464 41.4841 32.6498 41.4871L38.5026 34.508C39.7736 35.6422 41.2079 37.699 42.5141 39.7153C43.9333 41.9058 45.5621 44.6317 47.2454 47.5518C50.6153 53.3976 54.3126 60.2126 57.1607 65.462L49.4263 70.0592ZM33.402 34.0576L35.5348 32.7693L39.8831 40.6492L37.7503 41.9375L33.402 34.0576Z" fill="white"/>
<path fill-rule="evenodd" clip-rule="evenodd" d="M30.4192 51.3707C31.9554 54.1779 42.169 64.1704 49.0916 70.9432C52.8517 74.6218 55.6409 77.3506 55.5412 77.4621C55.4478 77.5666 53.0232 75.1583 49.6525 71.8106C42.7946 64.9991 32.0207 54.2982 28.9999 52.9588L30.4192 51.3707Z" fill="white"/>
<path d="M30.4192 51.3707L27.2026 48.2237L31.2682 43.6748L34.2341 49.0945L30.4192 51.3707ZM49.0916 70.9432L46.0929 74.2984L49.0916 70.9432ZM49.6525 71.8106L46.6296 75.1419L49.6525 71.8106ZM28.9999 52.9588L27.294 57.1933L21.4872 54.6185L25.7833 49.8118L28.9999 52.9588ZM34.2341 49.0945C34.2319 49.0905 34.3619 49.307 34.7611 49.8108C35.1259 50.2713 35.6148 50.8465 36.2229 51.5285C37.4377 52.8908 39.02 54.5585 40.8062 56.3866C44.3747 60.039 48.6208 64.1934 52.0904 67.5879L46.0929 74.2984C42.6399 70.9202 38.3178 66.6919 34.6649 62.9531C32.8403 61.0856 31.1485 59.3055 29.7998 57.7931C28.5718 56.416 27.2834 54.8879 26.6043 53.647L34.2341 49.0945ZM52.0904 67.5879C53.9623 69.4193 55.6217 71.0427 56.7992 72.2213C57.3819 72.8046 57.8864 73.3186 58.2505 73.7098C58.42 73.8919 58.6299 74.1227 58.8141 74.3527C58.8858 74.4421 59.0811 74.6875 59.271 75.0105C59.347 75.14 59.5849 75.5493 59.7513 76.1251C59.8145 76.3437 60.5095 78.6491 58.7578 80.6091L52.3246 74.3151C51.4494 75.2944 51.1921 76.4192 51.1524 77.1959C51.1156 77.9176 51.2512 78.4801 51.333 78.763C51.4945 79.3217 51.7219 79.7089 51.7821 79.8114C51.8744 79.9685 51.9543 80.0814 51.9911 80.1322C52.0333 80.1906 52.0654 80.2312 52.0797 80.2491C52.1158 80.2941 52.0948 80.2647 51.958 80.1178C51.7097 79.851 51.3006 79.432 50.7285 78.8593C49.5963 77.726 47.981 76.1457 46.0929 74.2984L52.0904 67.5879ZM58.7578 80.6091C57.0973 82.467 54.9856 82.0419 54.6538 81.9706C54.0649 81.8441 53.6379 81.6189 53.4996 81.5447C53.1607 81.3629 52.904 81.168 52.8161 81.101C52.5861 80.9256 52.3614 80.7282 52.1959 80.5794C51.8356 80.2556 51.367 79.8096 50.8418 79.3004C49.7783 78.2694 48.3063 76.8073 46.6296 75.1419L52.6755 68.4792C54.3694 70.1616 55.7951 71.5775 56.8099 72.5614C57.3239 73.0597 57.6896 73.4054 57.9155 73.6084C58.0431 73.723 58.0495 73.7228 57.9832 73.6722C57.977 73.6675 57.7853 73.5169 57.4939 73.3606C57.3793 73.2991 56.9716 73.0818 56.3975 72.9586C56.0806 72.8905 53.9793 72.4637 52.3246 74.3151L58.7578 80.6091ZM46.6296 75.1419C43.1913 71.7269 38.8282 67.3938 34.9527 63.7495C33.0125 61.925 31.2367 60.313 29.7862 59.092C29.0599 58.4806 28.4522 57.9987 27.9709 57.6488C27.4371 57.2607 27.2403 57.1695 27.294 57.1933L30.7057 48.7243C32.1175 49.3503 33.8199 50.6958 35.2875 51.9311C36.921 53.3062 38.8337 55.0463 40.8218 56.9158C44.803 60.6596 49.2558 65.0827 52.6755 68.4792L46.6296 75.1419ZM25.7833 49.8118L27.2026 48.2237L33.6358 54.5177L32.2165 56.1058L25.7833 49.8118Z" fill="white"/>
<path fill-rule="evenodd" clip-rule="evenodd" d="M75.8279 26.9487C75.8238 26.9633 75.82 26.9782 75.8164 26.9933L75.8279 26.9487ZM76.0081 28.7117C76.1167 32.9722 71.3324 51.6531 68.0898 64.3145C66.3285 71.1916 65.022 76.2929 65.2014 76.3432C65.3694 76.3903 66.4823 71.9155 68.0293 65.695C71.177 53.0382 76.1219 33.1544 78.5628 29.4279L76.0081 28.7117Z" fill="white"/>
<path d="M75.8279 26.9487L80.1608 28.1634L71.5174 25.6496L75.8279 26.9487ZM75.8164 26.9933L71.4628 25.8625L80.1494 28.208L75.8164 26.9933ZM76.0081 28.7117L77.1245 24.3524L71.3823 22.7426L71.5351 28.7397L76.0081 28.7117ZM68.0898 64.3145L63.7568 63.0998L68.0898 64.3145ZM68.0293 65.695L72.3699 66.8793L68.0293 65.695ZM78.5628 29.4279L82.3078 31.978L85.7236 26.7631L79.6792 25.0685L78.5628 29.4279ZM71.5174 25.6496C71.4978 25.7205 71.4796 25.7914 71.4628 25.8625L80.17 28.1241C80.1604 28.165 80.1498 28.2062 80.1383 28.2477L71.5174 25.6496ZM80.1494 28.208L80.1608 28.1634L71.4949 25.7339L71.4835 25.7786L80.1494 28.208ZM71.5351 28.7397C71.5478 29.2378 71.3761 30.7307 70.8779 33.3543C70.4113 35.8115 69.7385 38.8712 68.9503 42.2392C67.3752 48.9704 65.3808 56.7587 63.7568 63.0998L72.4227 65.5293C74.0414 59.2089 76.0604 51.326 77.6609 44.4863C78.4606 41.0689 79.1662 37.8681 79.6674 35.2287C80.1371 32.7557 80.5227 30.3158 80.4811 28.6837L71.5351 28.7397ZM63.7568 63.0998C62.8788 66.5282 62.1047 69.5504 61.5733 71.7203C61.3095 72.7977 61.0931 73.7153 60.9521 74.3847C60.8852 74.7027 60.8153 75.0576 60.7709 75.3761C60.7529 75.5049 60.7117 75.8117 60.7105 76.1708C60.71 76.3122 60.7101 76.7635 60.843 77.3147C60.9089 77.588 61.0664 78.1434 61.4561 78.75C61.8721 79.3977 62.7033 80.3152 64.085 80.7025L66.3178 71.9839C67.6939 72.3697 68.5202 73.2832 68.9321 73.9244C69.3176 74.5245 69.4716 75.071 69.5348 75.3329C69.6622 75.8614 69.6597 76.2804 69.6594 76.38C69.6588 76.5423 69.6486 76.6621 69.6441 76.7101C69.6388 76.7669 69.6338 76.8034 69.6326 76.8119C69.6322 76.8149 69.6487 76.7093 69.7066 76.4345C69.8152 75.9184 70.0018 75.1214 70.2623 74.0576C70.7797 71.945 71.5395 68.9779 72.4227 65.5293L63.7568 63.0998ZM64.085 80.7025C66.656 81.4233 68.2959 79.6878 68.4387 79.5411C68.8451 79.1235 69.0751 78.7176 69.1476 78.5883C69.3289 78.2645 69.443 77.9686 69.487 77.8532C69.5981 77.5617 69.6998 77.2359 69.7826 76.9583C69.9586 76.3682 70.1783 75.5547 70.4265 74.6025C70.9269 72.6819 71.5991 69.9787 72.3699 66.8793L63.6887 64.5106C62.9125 67.6318 62.2547 70.2763 61.77 72.1364C61.5255 73.0746 61.3389 73.7598 61.2106 74.1898C61.1413 74.4224 61.1164 74.4869 61.1284 74.4555C61.1343 74.4399 61.1509 74.3971 61.1775 74.3364C61.2004 74.2842 61.2547 74.1638 61.3401 74.0112C61.3948 73.9135 61.6089 73.5309 62.0011 73.1279C62.1298 72.9957 63.7573 71.2661 66.3178 71.9839L64.085 80.7025ZM72.3699 66.8793C73.9467 60.5391 75.9559 52.4609 77.8729 45.5067C78.8323 42.0265 79.7544 38.8796 80.5757 36.3987C80.9867 35.157 81.3584 34.1252 81.6834 33.3233C81.8454 32.9238 81.9856 32.6064 82.1031 32.3637C82.1612 32.2437 82.2092 32.1513 82.2468 32.0829C82.2654 32.0492 82.2801 32.0236 82.291 32.0055C82.2963 31.9965 82.3005 31.9897 82.3034 31.985C82.3048 31.9827 82.3059 31.981 82.3067 31.9798C82.3074 31.9786 82.3078 31.978 82.3078 31.978L74.8178 26.8777C73.8383 28.3731 72.9106 30.8779 72.084 33.375C71.1932 36.066 70.2247 39.3798 69.2493 42.9185C67.2966 50.002 65.2596 58.1941 63.6887 64.5106L72.3699 66.8793ZM79.6792 25.0685L77.1245 24.3524L74.8917 33.071L77.4464 33.7872L79.6792 25.0685Z" fill="white"/>
<path fill-rule="evenodd" clip-rule="evenodd" d="M87.8938 36.9196C87.0219 40.7576 78.4723 56.2509 72.6776 66.7519C69.5301 72.4557 67.1954 76.6865 67.3452 76.777C67.4855 76.8618 69.5037 73.142 72.3092 67.9712C78.0175 57.4503 86.9852 40.9219 90.0267 38.208L87.8938 36.9196Z" fill="white"/>
<path d="M87.8938 36.9196L90.0679 32.9796L84.9305 29.8763L83.587 35.7905L87.8938 36.9196ZM72.6776 66.7519L76.5294 69.0787L72.6776 66.7519ZM72.3092 67.9712L76.1764 70.2697L72.3092 67.9712ZM90.0267 38.208L92.953 41.6977L97.6146 37.5382L92.2009 34.268L90.0267 38.208ZM83.587 35.7905C83.498 36.1824 83.027 37.4292 81.9791 39.656C81.0049 41.7263 79.7077 44.2852 78.2344 47.0951C75.2902 52.7102 71.7285 59.1651 68.8258 64.4252L76.5294 69.0787C79.4215 63.8378 83.0319 57.2955 86.0291 51.5792C87.5265 48.7234 88.8924 46.033 89.9475 43.7907C90.929 41.7049 91.8537 39.5757 92.2006 38.0486L83.587 35.7905ZM68.8258 64.4252C67.2572 67.2677 65.8726 69.7768 64.8999 71.5854C64.4173 72.4827 64.0109 73.2542 63.7283 73.8246C63.5947 74.0941 63.4451 74.4059 63.3263 74.6953C63.2787 74.8109 63.162 75.0988 63.071 75.4512C63.035 75.5906 62.9221 76.0352 62.9156 76.6138C62.9124 76.9025 62.9297 77.4848 63.1581 78.1752C63.4028 78.9145 63.9726 79.993 65.171 80.7169L69.5193 72.8371C70.7131 73.5582 71.2795 74.6318 71.5218 75.3643C71.748 76.0479 71.7642 76.6213 71.7611 76.8991C71.7549 77.4561 71.6469 77.8711 71.6206 77.9732C71.5785 78.1363 71.5372 78.2551 71.5195 78.3047C71.4987 78.3628 71.4831 78.4012 71.4782 78.4132C71.4706 78.4316 71.5035 78.3534 71.6169 78.1244C71.8283 77.6979 72.1742 77.0382 72.65 76.1534C73.5941 74.3981 74.9505 71.9399 76.5294 69.0787L68.8258 64.4252ZM65.171 80.7169C67.412 82.0706 69.3931 80.8877 69.6043 80.7637C70.1094 80.4669 70.4388 80.1316 70.5435 80.0239C70.8039 79.7559 70.9895 79.498 71.0587 79.4011C71.2354 79.1538 71.4083 78.8759 71.5472 78.6465C71.8442 78.1559 72.2302 77.4779 72.6702 76.6886C73.5585 75.0949 74.7791 72.8451 76.1764 70.2697L68.442 65.6726C67.0338 68.2681 65.8425 70.4635 64.9853 72.0013C64.5525 72.7777 64.2323 73.3369 64.0238 73.6815C63.9098 73.8697 63.8802 73.9089 63.9086 73.869C63.9207 73.8522 63.95 73.8117 63.9937 73.7566C64.0317 73.7088 64.1178 73.6027 64.243 73.4739C64.3244 73.39 64.6342 73.0714 65.1233 72.7841C65.3185 72.6694 67.2871 71.4887 69.5193 72.8371L65.171 80.7169ZM76.1764 70.2697C79.0365 64.9983 82.6771 58.2889 85.9785 52.5619C87.6308 49.6956 89.1709 47.123 90.4671 45.1223C91.1159 44.1209 91.6785 43.3016 92.1448 42.678C92.377 42.3674 92.5688 42.1274 92.7214 41.9498C92.8818 41.763 92.9564 41.6946 92.953 41.6977L87.1005 34.7182C85.8294 35.8524 84.395 37.9093 83.0888 39.9255C81.6697 42.116 80.0408 44.8419 78.3575 47.762C74.9876 53.6079 71.2902 60.4231 68.442 65.6726L76.1764 70.2697ZM92.2009 34.268L90.0679 32.9796L85.7197 40.8595L87.8526 42.1479L92.2009 34.268Z" fill="white"/>
<path fill-rule="evenodd" clip-rule="evenodd" d="M95.1833 51.5815C93.647 54.3888 83.4335 64.3812 76.5109 71.1539C72.7509 74.8325 69.9617 77.5613 70.0614 77.6728C70.1547 77.7773 72.5794 75.369 75.95 72.0212C82.808 65.2098 93.5817 54.5091 96.6026 53.1695L95.1833 51.5815Z" fill="white"/>
<path d="M95.1833 51.5815L98.3999 48.4345L94.3344 43.8857L91.3685 49.3051L95.1833 51.5815ZM76.5109 71.1539L79.5097 74.5091L76.5109 71.1539ZM75.95 72.0212L78.973 75.3526L75.95 72.0212ZM96.6026 53.1695L98.3086 57.404L104.115 54.8291L99.8192 50.0225L96.6026 53.1695ZM91.3685 49.3051C91.3706 49.3012 91.2406 49.5178 90.8414 50.0216C90.4766 50.4821 89.9877 51.0573 89.3796 51.7393C88.1648 53.1016 86.5825 54.7692 84.7963 56.5974C81.2278 60.2498 76.9818 64.4041 73.5122 67.7986L79.5097 74.5091C82.9626 71.1309 87.2847 66.9027 90.9376 63.1639C92.7622 61.2964 94.454 59.5163 95.8027 58.0039C97.0307 56.6267 98.3191 55.0988 98.9982 53.8578L91.3685 49.3051ZM73.5122 67.7986C71.6403 69.63 69.9809 71.2534 68.8034 72.432C68.2207 73.0153 67.7162 73.5293 67.3521 73.9205C67.1826 74.1026 66.9727 74.3334 66.7885 74.5633C66.7168 74.6528 66.5214 74.8982 66.3316 75.2212C66.2555 75.3506 66.0177 75.76 65.8513 76.3358C65.7881 76.5544 65.0931 78.8598 66.8448 80.8198L73.278 74.5258C74.1532 75.5051 74.4105 76.6299 74.4502 77.4066C74.487 78.1283 74.3513 78.6908 74.2696 78.9737C74.1081 79.5324 73.8807 79.9196 73.8205 80.0221C73.7282 80.1792 73.6483 80.292 73.6115 80.3429C73.5693 80.4013 73.5371 80.4419 73.5228 80.4598C73.4868 80.5048 73.5078 80.4754 73.6446 80.3285C73.8929 80.0617 74.302 79.6427 74.8741 79.07C76.0063 77.9367 77.6215 76.3563 79.5097 74.5091L73.5122 67.7986ZM66.8448 80.8198C68.5053 82.6777 70.617 82.2525 70.9488 82.1813C71.5377 82.0548 71.9647 81.8295 72.103 81.7554C72.4418 81.5736 72.6985 81.3787 72.7865 81.3116C73.0165 81.1363 73.2411 80.9389 73.4067 80.7901C73.767 80.4663 74.2356 80.0203 74.7608 79.5111C75.8243 78.4801 77.2963 77.0179 78.973 75.3526L72.9271 68.6899C71.2332 70.3723 69.8075 71.7882 68.7927 72.7721C68.2787 73.2704 67.913 73.6161 67.6871 73.8191C67.5595 73.9337 67.5531 73.9335 67.6194 73.8829C67.6255 73.8782 67.8173 73.7276 68.1087 73.5713C68.2233 73.5098 68.631 73.2925 69.2051 73.1692C69.522 73.1012 71.6233 72.6744 73.278 74.5258L66.8448 80.8198ZM78.973 75.3526C82.4113 71.9376 86.7743 67.6046 90.6497 63.9603C92.5899 62.1357 94.3658 60.5238 95.8163 59.3028C96.5426 58.6914 97.1502 58.2095 97.6316 57.8596C98.1654 57.4714 98.3623 57.3802 98.3086 57.404L94.8967 48.935C93.4849 49.561 91.7826 50.9065 90.3149 52.1419C88.6814 53.517 86.7688 55.257 84.7807 57.1266C80.7995 60.8704 76.3467 65.2934 72.9271 68.6899L78.973 75.3526ZM99.8192 50.0225L98.3999 48.4345L91.9668 54.7285L93.386 56.3165L99.8192 50.0225Z" fill="white"/>
<path d="M33.5655 73.8262C33.5655 73.8262 57.6376 93.2208 63.8695 93.2208C70.1015 93.2208 94.8348 73.8262 94.8348 73.8262C101.887 65.341 99.3301 25.7805 64.4205 26.0009C28.3769 26.2285 24.5601 60.0734 33.5655 73.8262Z" stroke="#1B3557" stroke-width="3"/>
<path d="M45.2336 82.8615C45.2336 82.8615 44.2418 89.4252 44.2418 92.9204C44.2418 96.4156 43.9112 99.1705 45.2336 100.493C46.5559 101.815 81.4882 101.925 82.9208 100.493C84.3533 99.0603 83.8024 92.9204 83.8024 92.9204L82.9208 82.8615" stroke="#1B3557" stroke-width="3"/>
<path d="M49.7153 84.6246C49.7153 84.6246 52.2147 76.2497 63.9307 76.2497C75.6466 76.2497 78.146 84.6246 78.146 84.6246" stroke="#1B3557" stroke-width="3"/>
<path fill-rule="evenodd" clip-rule="evenodd" d="M62.4854 26C63.6567 30.0616 63.6566 49.8398 63.6566 63.2295C63.6566 70.4761 63.6566 75.8516 63.8422 75.8516C64.0162 75.8516 63.9842 71.1454 63.9397 64.6033C63.8488 51.2465 63.7059 30.2366 65.1576 26H62.4854Z" fill="#1B3557"/>
<path d="M62.4854 26V25.5H61.8208L62.0049 26.1386L62.4854 26ZM63.6566 63.2295L64.1566 63.2295L63.6566 63.2295ZM63.9397 64.6033L63.4397 64.6067L63.9397 64.6033ZM65.1576 26L65.6306 26.1621L65.8574 25.5H65.1576V26ZM62.0049 26.1386C62.28 27.0925 62.4982 29.0348 62.6635 31.6789C62.8276 34.3032 62.9372 37.5667 63.0103 41.127C63.1566 48.2468 63.1566 56.5335 63.1566 63.2295L64.1566 63.2295C64.1566 56.5358 64.1567 48.2385 64.0101 41.1064C63.9369 37.5407 63.8269 34.2612 63.6615 31.6165C63.4974 28.9914 63.2763 26.9383 62.9658 25.8614L62.0049 26.1386ZM63.1566 63.2295C63.1566 66.8517 63.1566 70.0103 63.1798 72.2632C63.1914 73.3888 63.2089 74.2939 63.2353 74.9196C63.2485 75.2305 63.2643 75.4826 63.284 75.6612C63.2934 75.7472 63.3058 75.8353 63.3243 75.9097C63.3325 75.9428 63.3491 76.0043 63.3825 76.068C63.399 76.0994 63.4329 76.1578 63.4934 76.214C63.5575 76.2736 63.6762 76.3516 63.8422 76.3516V75.3516C64.0025 75.3516 64.1154 75.4269 64.174 75.4813C64.2288 75.5322 64.2572 75.5828 64.2682 75.6038C64.2812 75.6286 64.2881 75.6478 64.2907 75.6556C64.2923 75.6603 64.2934 75.6638 64.294 75.6658C64.2946 75.6679 64.2949 75.669 64.2949 75.6691C64.2949 75.6692 64.2947 75.6685 64.2944 75.6669C64.294 75.6653 64.2936 75.6631 64.293 75.6601C64.2918 75.6542 64.2904 75.6461 64.2888 75.6356C64.2855 75.6144 64.2818 75.5867 64.2779 75.5516C64.2621 75.408 64.2474 75.1835 64.2344 74.8773C64.2087 74.2686 64.1913 73.377 64.1798 72.2529C64.1566 70.0064 64.1566 66.854 64.1566 63.2295L63.1566 63.2295ZM63.8422 76.3516C64.1497 76.3516 64.2822 76.1038 64.2954 76.08C64.3311 76.0156 64.3484 75.9538 64.3566 75.9221C64.3751 75.8506 64.3867 75.7682 64.3952 75.6917C64.4129 75.5315 64.4263 75.3074 64.4368 75.0331C64.4579 74.4806 64.4688 73.6807 64.4729 72.6828C64.4811 70.6851 64.4619 67.8698 64.4397 64.5999L63.4397 64.6067C63.462 67.879 63.4811 70.6878 63.4729 72.6787C63.4688 73.675 63.4579 74.4606 63.4375 74.9949C63.4272 75.2641 63.4149 75.4587 63.4012 75.5815C63.3979 75.6113 63.3949 75.6341 63.3922 75.6509C63.3893 75.6687 63.3877 75.6745 63.3884 75.6721C63.3888 75.6706 63.3906 75.6636 63.3944 75.6529C63.3979 75.6432 63.4059 75.6221 63.4205 75.5957C63.4236 75.5901 63.5457 75.3516 63.8422 75.3516V76.3516ZM64.4397 64.5999C64.3942 57.9202 64.3358 49.3349 64.4701 41.8906C64.5372 38.1681 64.6524 34.7368 64.8409 31.9748C65.031 29.1891 65.2926 27.1485 65.6306 26.1621L64.6846 25.8379C64.2967 26.9698 64.0318 29.1442 63.8432 31.9067C63.6531 34.6931 63.5375 38.1434 63.4702 41.8726C63.3357 49.3316 63.3943 57.9297 63.4397 64.6067L64.4397 64.5999ZM65.1576 25.5H62.4854V26.5H65.1576V25.5Z" fill="#1B3557"/>
<path fill-rule="evenodd" clip-rule="evenodd" d="M50.321 28.5012C50.2126 32.7621 54.9968 51.4426 58.2394 64.1038C60.0007 70.9809 61.3071 76.0822 61.1278 76.1325C60.9597 76.1796 59.8469 71.7048 58.2999 65.4843C55.1523 52.8277 50.2074 32.9443 47.7665 29.2173L50.321 28.5012Z" fill="#1B3557"/>
<path d="M50.321 28.5012L50.197 28.0168L50.835 27.8379L50.818 28.5043L50.321 28.5012ZM58.2394 64.1038L58.7208 63.9689L58.2394 64.1038ZM58.2999 65.4843L58.7821 65.3527L58.2999 65.4843ZM47.7665 29.2173L47.3504 29.5007L46.9709 28.9212L47.6424 28.733L47.7665 29.2173ZM50.818 28.5043C50.7925 29.5065 51.0593 31.4204 51.5449 33.977C52.0269 36.5152 52.7142 39.6376 53.5075 43.0275C55.0939 49.8069 57.0992 57.6371 58.7208 63.9689L57.758 64.2388C56.137 57.9093 54.1289 50.0686 52.5397 43.2772C51.7451 39.8818 51.0541 36.7437 50.5683 34.1853C50.0859 31.6453 49.7953 29.6263 49.824 28.4981L50.818 28.5043ZM58.7208 63.9689C59.6012 67.4063 60.3689 70.404 60.894 72.5484C61.1564 73.6198 61.3596 74.4837 61.4862 75.085C61.5491 75.3838 61.5952 75.6279 61.6197 75.8035C61.6315 75.8879 61.6411 75.976 61.6414 76.0531C61.6415 76.0874 61.6403 76.1519 61.6231 76.2232C61.6146 76.2586 61.5956 76.3243 61.5504 76.3946C61.5023 76.4694 61.4078 76.5732 61.2518 76.6169L61.0037 75.6482C60.8533 75.6903 60.7637 75.79 60.7198 75.8584C60.6788 75.9222 60.6632 75.9789 60.6574 76.003C60.6506 76.031 60.6486 76.052 60.6478 76.0607C60.6474 76.0659 60.6472 76.0699 60.6472 76.0722C60.6471 76.0747 60.6471 76.0761 60.6471 76.0763C60.6471 76.0767 60.6471 76.0742 60.6467 76.0684C60.6464 76.0627 60.6458 76.0549 60.6449 76.0447C60.643 76.0241 60.6398 75.9972 60.6351 75.9631C60.6156 75.8232 60.5753 75.6068 60.5134 75.3128C60.3905 74.7285 60.1906 73.878 59.9286 72.8081C59.405 70.67 58.6389 67.6785 57.758 64.2388L58.7208 63.9689ZM61.2518 76.6169C60.9615 76.6983 60.7738 76.5028 60.7516 76.4801C60.7002 76.4272 60.6675 76.3718 60.6516 76.3433C60.6156 76.2792 60.584 76.203 60.5571 76.1324C60.5007 75.9845 60.4332 75.7747 60.3563 75.5172C60.2016 74.9982 59.9965 74.2417 59.75 73.2958C59.2565 71.402 58.5908 68.7249 57.8176 65.6158L58.7821 65.3527C59.556 68.4641 60.2201 71.1347 60.7118 73.0218C60.9579 73.9662 61.1593 74.7084 61.3088 75.2096C61.3841 75.4621 61.4431 75.6428 61.4858 75.7549C61.5085 75.8143 61.5195 75.8355 61.5191 75.8348C61.5181 75.8331 61.5143 75.8264 61.5076 75.8167C61.5016 75.8079 61.4882 75.7893 61.4669 75.7675C61.4589 75.7593 61.2836 75.5697 61.0037 75.6482L61.2518 76.6169ZM57.8176 65.6158C56.2434 59.2863 54.2219 51.1576 52.2891 44.146C51.3226 40.6398 50.3798 37.4188 49.5277 34.8445C48.6684 32.2487 47.9196 30.3698 47.3504 29.5007L48.1826 28.934C48.8338 29.9284 49.6184 31.9325 50.4712 34.5085C51.3311 37.1061 52.279 40.3458 53.2472 43.8584C55.184 50.8844 57.2087 59.0257 58.7821 65.3527L57.8176 65.6158ZM47.6424 28.733L50.197 28.0168L50.4451 28.9855L47.8905 29.7017L47.6424 28.733Z" fill="#1B3557"/>
<path fill-rule="evenodd" clip-rule="evenodd" d="M38.4358 36.7092C39.308 40.5476 47.8573 56.0405 53.6519 66.5413C56.7994 72.245 59.1341 76.4759 58.9844 76.5664C58.8441 76.6511 56.8259 72.9314 54.0203 67.7605C48.3122 57.2398 39.3447 40.7119 36.303 37.9975L38.4358 36.7092Z" fill="#1B3557"/>
<path d="M38.4358 36.7092L38.1942 36.2714L38.765 35.9266L38.9143 36.5837L38.4358 36.7092ZM53.6519 66.5413L53.224 66.7998L53.6519 66.5413ZM54.0203 67.7605L53.5906 68.0159L53.5906 68.0159L54.0203 67.7605ZM36.303 37.9975L35.9778 38.3852L35.4599 37.9231L36.0614 37.5597L36.303 37.9975ZM38.9143 36.5837C39.118 37.4803 39.7907 39.1193 40.8091 41.2834C41.8193 43.4302 43.147 46.0475 44.631 48.8777C47.5987 54.5378 51.182 61.0313 54.0799 66.2828L53.224 66.7998C50.3272 61.5505 46.7385 55.0472 43.7649 49.376C42.2782 46.5406 40.9429 43.9087 39.9237 41.7428C38.9127 39.5943 38.1896 37.8573 37.9573 36.8346L38.9143 36.5837ZM54.0799 66.2828C55.6531 69.1336 57.0252 71.6201 57.9852 73.405C58.4647 74.2967 58.8443 75.0185 59.0952 75.525C59.2198 75.7765 59.3175 75.9845 59.3802 76.137C59.4102 76.2101 59.44 76.2891 59.4587 76.3614C59.467 76.3935 59.4818 76.4561 59.4826 76.53C59.483 76.5669 59.4806 76.6355 59.4542 76.7153C59.426 76.8005 59.3612 76.9225 59.2259 77.0042L58.7428 76.1286C58.6122 76.2075 58.5508 76.3246 58.5249 76.403C58.5008 76.4759 58.4995 76.5357 58.4998 76.5617C58.5001 76.5917 58.5034 76.6136 58.505 76.6233C58.5068 76.6341 58.5085 76.6406 58.5088 76.6417C58.5091 76.6432 58.5074 76.6363 58.501 76.6184C58.4949 76.6015 58.4863 76.5789 58.4744 76.5501C58.4258 76.4318 58.3411 76.2498 58.2187 76.0028C57.9757 75.5123 57.6029 74.8029 57.124 73.9126C56.1672 72.1336 54.7983 69.6527 53.224 66.7998L54.0799 66.2828ZM59.2259 77.0042C58.973 77.1569 58.7474 77.0245 58.7168 77.0066C58.6535 76.9694 58.6082 76.9247 58.5863 76.9022C58.5368 76.8512 58.4892 76.7886 58.4486 76.7318C58.3631 76.6121 58.2539 76.4403 58.1261 76.2292C57.8684 75.8035 57.5117 75.1783 57.0749 74.3947C56.2004 72.8259 54.9928 70.6003 53.5906 68.0159L54.45 67.5051C55.8534 70.0917 57.0577 72.3113 57.9287 73.8739C58.3647 74.6561 58.7142 75.2681 58.962 75.6775C59.087 75.8841 59.1804 76.0293 59.2431 76.1171C59.2765 76.1639 59.2895 76.1777 59.2863 76.1744C59.2843 76.1723 59.2783 76.1662 59.2687 76.158C59.2599 76.1506 59.2415 76.1357 59.2147 76.12C59.2001 76.1114 58.9869 75.9812 58.7428 76.1286L59.2259 77.0042ZM53.5906 68.0159C50.7359 62.7544 47.0701 55.9981 43.7383 50.2183C42.0723 47.3281 40.4927 44.6874 39.1419 42.6024C37.7786 40.498 36.6815 39.0132 35.9778 38.3852L36.6281 37.6098C37.4453 38.339 38.6098 39.9382 39.9617 42.0249C41.3262 44.1311 42.9156 46.7888 44.5851 49.685C47.9245 55.478 51.5966 62.246 54.45 67.5051L53.5906 68.0159ZM36.0614 37.5597L38.1942 36.2714L38.6774 37.1469L36.5445 38.4353L36.0614 37.5597Z" fill="#1B3557"/>
<path fill-rule="evenodd" clip-rule="evenodd" d="M31.1465 51.3707C32.6827 54.1778 42.8963 64.1704 49.8189 70.9431C53.579 74.6218 56.3682 77.3506 56.2685 77.4621C56.1751 77.5665 53.7505 75.1583 50.3798 71.8105C43.5219 64.999 32.748 54.2982 29.7272 52.9587L31.1465 51.3707Z" fill="#1B3557"/>
<path d="M31.1465 51.3707L30.7891 51.021L31.2408 50.5156L31.5704 51.1177L31.1465 51.3707ZM49.8189 70.9431L49.4857 71.3159L49.8189 70.9431ZM50.3798 71.8105L50.044 72.1806L50.3798 71.8105ZM29.7272 52.9587L29.5376 53.4292L28.8924 53.1431L29.3698 52.6091L29.7272 52.9587ZM31.5704 51.1177C31.9216 51.7596 32.8078 52.8686 34.0955 54.3127C35.3698 55.7417 37.0007 57.4594 38.804 59.305C42.4101 62.9958 46.6899 67.183 50.1521 70.5703L49.4857 71.3159C46.0254 67.9304 41.7371 63.735 38.1216 60.0346C36.3141 58.1846 34.671 56.4545 33.3818 55.0088C32.1061 53.5781 31.1394 52.3853 30.7226 51.6236L31.5704 51.1177ZM50.1521 70.5703C52.0313 72.4088 53.671 74.013 54.8284 75.1715C55.4064 75.7501 55.8685 76.2218 56.1811 76.5577C56.3361 76.7242 56.462 76.8655 56.5483 76.9732C56.5892 77.0243 56.6347 77.0843 56.6699 77.1442C56.6854 77.1706 56.7164 77.2259 56.7371 77.2974C56.7463 77.3293 56.8233 77.5908 56.6259 77.8117L55.9111 77.1124C55.7199 77.3263 55.7975 77.5757 55.8018 77.5905C55.8107 77.6215 55.8206 77.6438 55.8258 77.6547C55.8315 77.6667 55.836 77.6746 55.8378 77.6776C55.8412 77.6835 55.8333 77.6698 55.8001 77.6284C55.7382 77.5512 55.6333 77.4323 55.482 77.2697C55.1822 76.9477 54.7307 76.4864 54.1539 75.909C53.0015 74.7556 51.3667 73.1561 49.4857 71.3159L50.1521 70.5703ZM56.6259 77.8117C56.4388 78.0211 56.1996 77.9745 56.1561 77.9652C56.084 77.9497 56.028 77.9211 56.0021 77.9072C55.9434 77.8757 55.886 77.8344 55.8399 77.7992C55.7416 77.7243 55.6139 77.6147 55.4653 77.4811C55.1647 77.211 54.7418 76.8096 54.2216 76.3052C53.1797 75.2952 51.7283 73.8536 50.044 72.1806L50.7157 71.4403C52.402 73.1152 53.8482 74.5516 54.8847 75.5565C55.4037 76.0596 55.8151 76.4499 56.1008 76.7066C56.2452 76.8364 56.3486 76.924 56.414 76.9738C56.4497 77.001 56.4572 77.004 56.4459 76.9979C56.4437 76.9967 56.407 76.9761 56.3498 76.9639C56.3212 76.9577 56.0924 76.9096 55.9111 77.1124L56.6259 77.8117ZM50.044 72.1806C46.6139 68.7739 42.2109 64.4008 38.2885 60.7122C36.327 58.8677 34.4903 57.1988 32.9585 55.9093C31.4082 54.6044 30.2199 53.7317 29.5376 53.4292L29.9167 52.4882C30.7449 52.8554 32.036 53.8227 33.5698 55.1137C35.1219 56.4202 36.9738 58.1034 38.9406 59.9529C42.8748 63.6525 47.2878 68.0356 50.7157 71.4403L50.044 72.1806ZM29.3698 52.6091L30.7891 51.021L31.5039 51.7203L30.0846 53.3084L29.3698 52.6091Z" fill="#1B3557"/>
<path fill-rule="evenodd" clip-rule="evenodd" d="M76.5551 26.9487C76.5511 26.9633 76.5473 26.9782 76.5437 26.9933L76.5551 26.9487ZM76.7354 28.7117C76.844 32.9722 72.0597 51.6531 68.8171 64.3145C67.0558 71.1916 65.7493 76.2929 65.9287 76.3432C66.0967 76.3903 67.2096 71.9155 68.7566 65.695C71.9042 53.0382 76.8492 33.1544 79.2901 29.4279L76.7354 28.7117Z" fill="#1B3557"/>
<path d="M76.5551 26.9487L77.0366 27.0836L76.0762 26.8043L76.5551 26.9487ZM76.5437 26.9933L76.06 26.8676L77.0252 27.1282L76.5437 26.9933ZM76.7354 28.7117L76.8595 28.2273L76.2214 28.0484L76.2384 28.7148L76.7354 28.7117ZM68.8171 64.3145L68.3356 64.1796L68.8171 64.3145ZM68.7566 65.695L69.2389 65.8265L68.7566 65.695ZM79.2901 29.4279L79.7062 29.7112L80.0857 29.1318L79.4141 28.9435L79.2901 29.4279ZM76.0762 26.8043C76.0704 26.8252 76.065 26.8463 76.06 26.8676L77.0275 27.1189C77.0295 27.1101 77.0318 27.1014 77.0341 27.093L76.0762 26.8043ZM77.0252 27.1282L77.0366 27.0836L76.0737 26.8137L76.0623 26.8583L77.0252 27.1282ZM76.2384 28.7148C76.2639 29.7169 75.9972 31.6307 75.5116 34.1874C75.0296 36.7256 74.3423 39.8479 73.549 43.2379C71.9626 50.0174 69.9572 57.8477 68.3356 64.1796L69.2985 64.4495C70.9195 58.1199 72.9276 50.2791 74.5169 43.4876C75.3114 40.0921 76.0024 36.9541 76.4883 34.3957C76.9706 31.8557 77.2611 29.8367 77.2324 28.7086L76.2384 28.7148ZM68.3356 64.1796C67.4553 67.617 66.6876 70.6147 66.1624 72.7591C65.9001 73.8305 65.6969 74.6945 65.5703 75.2957C65.5074 75.5945 65.4612 75.8386 65.4367 76.0142C65.425 76.0986 65.4153 76.1867 65.4151 76.2638C65.4149 76.2981 65.4161 76.3626 65.4333 76.4339C65.4419 76.4693 65.4609 76.535 65.506 76.6053C65.5541 76.6801 65.6486 76.7839 65.8046 76.8276L66.0527 75.8589C66.2031 75.901 66.2928 76.0007 66.3367 76.0691C66.3777 76.1329 66.3933 76.1897 66.3991 76.2137C66.4058 76.2417 66.4079 76.2627 66.4086 76.2714C66.409 76.2766 66.4092 76.2806 66.4093 76.2829C66.4094 76.2854 66.4094 76.2868 66.4094 76.287C66.4094 76.2874 66.4094 76.2849 66.4097 76.2791C66.41 76.2734 66.4106 76.2656 66.4116 76.2554C66.4135 76.2348 66.4166 76.2079 66.4214 76.1738C66.4409 76.0339 66.4811 75.8175 66.543 75.5235C66.666 74.9393 66.8659 74.0887 67.1279 73.0188C67.6514 70.8807 68.4176 67.8892 69.2985 64.4495L68.3356 64.1796ZM65.8046 76.8276C66.095 76.909 66.2827 76.7135 66.3048 76.6908C66.3563 76.6379 66.3889 76.5825 66.4049 76.554C66.4408 76.4899 66.4725 76.4137 66.4994 76.3431C66.5557 76.1952 66.6233 75.9854 66.7001 75.7279C66.8549 75.2089 67.0599 74.4524 67.3064 73.5065C67.7999 71.6127 68.4657 68.9356 69.2389 65.8265L68.2743 65.5634C67.5005 68.6749 66.8363 71.3454 66.3446 73.2325C66.0985 74.1769 65.8972 74.9191 65.7477 75.4203C65.6724 75.6728 65.6133 75.8535 65.5706 75.9656C65.548 76.025 65.537 76.0462 65.5374 76.0455C65.5383 76.0438 65.5421 76.0371 65.5488 76.0274C65.5549 76.0186 65.5683 76.0001 65.5895 75.9782C65.5976 75.97 65.7729 75.7804 66.0527 75.8589L65.8046 76.8276ZM69.2389 65.8265C70.813 59.4969 72.8347 51.3681 74.7675 44.3564C75.734 40.8502 76.6767 37.6291 77.5289 35.0549C78.3882 32.4591 79.137 30.5802 79.7062 29.7112L78.874 29.1445C78.2227 30.1388 77.4381 32.1429 76.5854 34.7189C75.7255 37.3165 74.7776 40.5561 73.8093 44.0688C71.8725 51.0948 69.8478 59.2363 68.2743 65.5634L69.2389 65.8265ZM79.4141 28.9435L76.8595 28.2273L76.6114 29.196L79.166 29.9122L79.4141 28.9435Z" fill="#1B3557"/>
<path fill-rule="evenodd" clip-rule="evenodd" d="M88.6206 36.9195C87.7487 40.7576 79.1991 56.2508 73.4044 66.7519C70.2569 72.4556 67.9222 76.6865 68.072 76.7769C68.2123 76.8617 70.2305 73.142 73.036 67.9711C78.7443 57.4502 87.712 40.9218 90.7535 38.2079L88.6206 36.9195Z" fill="#1B3557"/>
<path d="M88.6206 36.9195L88.8622 36.4817L88.2913 36.1369L88.1421 36.794L88.6206 36.9195ZM73.4044 66.7519L73.8324 67.0104L73.4044 66.7519ZM73.036 67.9711L73.4657 68.2265L73.4657 68.2265L73.036 67.9711ZM90.7535 38.2079L91.0787 38.5957L91.5966 38.1335L90.9951 37.7701L90.7535 38.2079ZM88.1421 36.794C87.9384 37.6905 87.2658 39.3294 86.2475 41.4936C85.2373 43.6403 83.9096 46.2577 82.4255 49.088C79.4578 54.7481 75.8744 61.2418 72.9764 66.4934L73.8324 67.0104C76.7292 61.761 80.3179 55.2575 83.2916 49.5862C84.7783 46.7508 86.1137 44.1189 87.1328 41.953C88.1438 39.8045 88.8668 38.0675 89.0991 37.0449L88.1421 36.794ZM72.9764 66.4934C71.4033 69.3442 70.0312 71.8307 69.0712 73.6156C68.5916 74.5073 68.2121 75.2291 67.9611 75.7356C67.8365 75.9871 67.7388 76.195 67.6761 76.3476C67.6461 76.4207 67.6163 76.4997 67.5976 76.572C67.5894 76.6041 67.5746 76.6666 67.5738 76.7406C67.5733 76.7775 67.5757 76.8461 67.6021 76.9259C67.6303 77.011 67.6952 77.133 67.8304 77.2147L68.3136 76.3392C68.4441 76.418 68.5055 76.5352 68.5314 76.6135C68.5555 76.6864 68.5569 76.7462 68.5566 76.7723C68.5563 76.8022 68.553 76.8242 68.5514 76.8338C68.5495 76.8446 68.5479 76.8512 68.5476 76.8522C68.5472 76.8538 68.549 76.8469 68.5554 76.829C68.5614 76.812 68.5701 76.7895 68.5819 76.7607C68.6305 76.6423 68.7153 76.4603 68.8376 76.2133C69.0807 75.7228 69.4535 75.0135 69.9323 74.1232C70.8891 72.3441 72.2581 69.8633 73.8324 67.0104L72.9764 66.4934ZM67.8304 77.2147C68.0833 77.3675 68.309 77.2351 68.3396 77.2171C68.4028 77.18 68.4481 77.1353 68.4701 77.1127C68.5196 77.0617 68.5671 76.9992 68.6077 76.9423C68.6932 76.8227 68.8025 76.6509 68.9302 76.4398C69.1879 76.0141 69.5447 75.3889 69.9815 74.6053C70.856 73.0365 72.0635 70.8108 73.4657 68.2265L72.6063 67.7157C71.203 70.3023 69.9987 72.5219 69.1276 74.0845C68.6916 74.8666 68.3422 75.4786 68.0943 75.8881C67.9693 76.0946 67.876 76.2399 67.8133 76.3277C67.7798 76.3745 67.7668 76.3882 67.77 76.3849C67.772 76.3829 67.778 76.3768 67.7877 76.3686C67.7964 76.3612 67.8148 76.3463 67.8417 76.3305C67.8562 76.322 68.0694 76.1917 68.3136 76.3392L67.8304 77.2147ZM73.4657 68.2265C76.3205 62.9648 79.9864 56.2084 83.3182 50.4286C84.9843 47.5383 86.5639 44.8976 87.9147 42.8126C89.278 40.7082 90.375 39.2235 91.0787 38.5957L90.4284 37.8202C89.6113 38.5493 88.4468 40.1484 87.0949 42.2351C85.7304 44.3413 84.141 46.999 82.4714 49.8952C79.132 55.6883 75.4598 62.4565 72.6063 67.7157L73.4657 68.2265ZM90.9951 37.7701L88.8622 36.4817L88.379 37.3573L90.512 38.6457L90.9951 37.7701Z" fill="#1B3557"/>
<path fill-rule="evenodd" clip-rule="evenodd" d="M95.9104 51.5815C94.3738 54.3889 84.1605 64.3811 77.2381 71.1537C73.478 74.8324 70.6888 77.5612 70.7885 77.6727C70.8819 77.7771 73.3065 75.3689 76.6772 72.0211C83.535 65.2098 94.3085 54.5093 97.3296 53.1694L95.9104 51.5815Z" fill="#1B3557"/>
<path d="M95.9104 51.5815L96.2678 51.2318L95.8161 50.7264L95.4865 51.3285L95.9104 51.5815ZM77.2381 71.1537L77.5713 71.5265L77.2381 71.1537ZM76.6772 72.0211L77.013 72.3913L76.6772 72.0211ZM97.3296 53.1694L97.5192 53.6399L98.1643 53.3538L97.687 52.8198L97.3296 53.1694ZM95.4865 51.3285C95.1352 51.9705 94.2489 53.0795 92.9612 54.5236C91.6869 55.9527 90.056 57.6703 88.2527 59.5159C84.6467 63.2066 80.367 67.3937 76.9049 70.7809L77.5713 71.5265C81.0316 68.1411 85.3197 63.9458 88.9351 60.2455C90.7426 58.3955 92.3857 56.6654 93.6749 55.2197C94.9507 53.789 95.9173 52.5962 96.3343 51.8344L95.4865 51.3285ZM76.9049 70.7809C75.0257 72.6194 73.386 74.2236 72.2286 75.3821C71.6506 75.9607 71.1885 76.4325 70.8759 76.7684C70.7209 76.9348 70.595 77.0761 70.5087 77.1838C70.4678 77.2349 70.4223 77.2949 70.3871 77.3548C70.3716 77.3812 70.3406 77.4365 70.3199 77.508C70.3107 77.5399 70.2337 77.8015 70.4311 78.0223L71.1459 77.323C71.3371 77.5369 71.2595 77.7864 71.2552 77.8011C71.2463 77.8321 71.2364 77.8544 71.2312 77.8653C71.2255 77.8773 71.221 77.8852 71.2192 77.8882C71.2158 77.8941 71.2237 77.8804 71.2569 77.839C71.3188 77.7618 71.4237 77.6429 71.575 77.4804C71.8748 77.1583 72.3263 76.6971 72.9031 76.1197C74.0555 74.9662 75.6903 73.3667 77.5713 71.5265L76.9049 70.7809ZM70.4311 78.0223C70.6182 78.2317 70.8574 78.1851 70.9009 78.1758C70.9729 78.1603 71.029 78.1318 71.0549 78.1179C71.1136 78.0864 71.171 78.045 71.2171 78.0098C71.3154 77.9349 71.4431 77.8253 71.5917 77.6917C71.8923 77.4216 72.3152 77.0202 72.8354 76.5159C73.8773 75.5058 75.3287 74.0642 77.013 72.3913L76.3413 71.651C74.655 73.3258 73.2088 74.7622 72.1723 75.7671C71.6533 76.2702 71.2419 76.6605 70.9562 76.9172C70.8118 77.047 70.7084 77.1346 70.643 77.1844C70.6073 77.2116 70.5998 77.2146 70.6111 77.2085C70.6133 77.2073 70.65 77.1868 70.7072 77.1745C70.7358 77.1683 70.9646 77.1202 71.1459 77.323L70.4311 78.0223ZM77.013 72.3913C80.443 68.9846 84.8459 64.6116 88.7682 60.9231C90.7297 59.0786 92.5663 57.4097 94.0982 56.1202C95.6484 54.8153 96.8369 53.9425 97.5192 53.6399L97.14 52.6989C96.3118 53.0662 95.0207 54.0335 93.4869 55.3246C91.9347 56.6311 90.0829 58.3143 88.1161 60.1638C84.182 63.8634 79.7692 68.2463 76.3413 71.651L77.013 72.3913ZM97.687 52.8198L96.2678 51.2318L95.553 51.9311L96.9722 53.5191L97.687 52.8198Z" fill="#1B3557"/>
</svg>
