<svg width="500" height="500" viewBox="0 0 500 500" fill="none" xmlns="http://www.w3.org/2000/svg">
<rect width="500" height="500" fill="white"/>
<rect width="452" height="226" transform="translate(24 137)" fill="white"/>
<path d="M60 336C60 226.096 148.872 137 258.5 137C368.128 137 457 226.096 457 336" fill="#F7F7F7" fill-opacity="0.7"/>
<path d="M462.326 363H37.6739C30.1221 363 24 356.732 24 349C24 341.268 30.1221 335 37.6739 335H462.326C469.878 335 476 341.268 476 349C476 356.732 469.878 363 462.326 363Z" fill="#D3D3D3" fill-opacity="0.48"/>
<path d="M369.028 315.502C369.028 315.502 372.392 323.877 373.065 325.258C373.62 326.398 374.717 327.123 375.758 327.846C376.091 328.078 376.44 328.623 376.736 329.083C376.974 329.452 376.985 329.903 376.834 330.315C374.192 337.517 366.125 340.413 365.936 339.872C365.595 338.897 366.792 336.934 368.483 335.952C370.185 334.964 371.167 333.079 371.242 331.112C371.301 329.547 370.956 327.993 370.24 326.601L366.952 320.364L369.028 315.502Z" fill="#FA968C" fill-opacity="0.51"/>
<path d="M357.426 325.987L355.413 334.933C354.797 337.668 355.185 340.538 356.501 343.014C356.501 343.015 356.502 343.015 356.502 343.015C357.241 344.399 356.584 346.113 355.106 346.641C350.33 348.345 341.068 351.586 340.655 351.235C338.55 349.451 344.115 346.511 348.228 343.419C351.002 341.334 352.062 331.619 352.309 324.168L356.72 325.279C357.061 325.375 357.329 325.643 357.426 325.987Z" fill="#FA968C" fill-opacity="0.51"/>
<path d="M349.164 345.963C347.186 346.614 345.018 346.825 343.032 347.069C342.804 347.097 342.586 347.186 342.405 347.326C340.499 348.803 339.538 350.288 340.654 351.234C341.102 351.614 351.984 347.761 356.227 346.238C357.115 345.919 357.503 344.891 357.059 344.059L356.25 342.544C354.031 343.958 351.67 345.139 349.164 345.963Z" fill="#0B4870"/>
<path d="M353.671 226.402C358.931 227.12 363.413 233.184 362.488 239.955C361.957 243.846 358.336 257.773 354.354 268.783C352.826 273.008 353.45 277.799 356.313 281.262C356.779 281.826 357.184 282.41 357.506 283.003C359.166 286.06 365.556 304.12 369.308 316.172C369.009 317.75 368.068 319.749 366.887 320.445C360.287 310.212 349.555 291.531 347.789 288.279C346.808 286.473 345.737 284.385 344.955 282.423C340.682 276.767 341.509 245.17 342.366 238.888C343.291 232.117 348.41 225.684 353.671 226.402Z" fill="#0B4870"/>
<path d="M352.238 174.656C352.238 174.656 347.681 177.523 348.235 181.387C348.235 181.387 345.801 179.664 345.251 173.727C344.87 169.614 352.238 174.656 352.238 174.656Z" fill="#0B4870"/>
<path d="M350.849 198.197C350.788 198.932 350.72 199.662 350.613 200.39C350.419 201.139 350.257 201.886 349.971 202.611C349.374 204.058 348.539 205.464 347.446 206.527C345.281 208.724 342.689 209.815 340.31 210.408C337.898 210.984 335.574 211.079 333.327 210.968C331.08 210.846 328.9 210.498 326.787 209.942C324.673 209.398 322.627 208.644 320.66 207.704C318.695 206.763 316.805 205.618 315.1 204.167C313.407 202.722 311.843 200.958 310.89 198.772C309.922 196.604 309.762 194.022 310.48 191.858C310.707 191.174 311.446 190.803 312.13 191.031C312.733 191.231 313.093 191.83 313.013 192.438L313.011 192.449C312.559 195.917 314.868 198.654 317.847 200.428C320.865 202.193 324.438 203.263 328.005 203.654C331.543 204.036 335.232 203.87 338.081 202.786C339.494 202.272 340.579 201.503 341.1 200.755C341.627 200.015 341.83 199.335 341.76 198.198L341.754 198.102C341.6 195.589 343.513 193.426 346.026 193.272C348.539 193.118 350.702 195.031 350.856 197.544C350.868 197.755 350.864 197.991 350.849 198.197Z" fill="#FAB9AF"/>
<path d="M347.138 218.215C345.315 212.721 341.647 201.087 341.961 197.284C342.162 194.848 344.197 192.982 346.642 192.982H362.501C365.131 192.982 367.282 195.067 367.358 197.695C367.492 202.288 365.375 212.743 364.185 218.214H347.138V218.215Z" fill="#357AB8"/>
<path d="M352.403 326.099C352.154 325.947 352.015 325.664 352.023 325.372C352.359 313.708 353.067 298.839 353.324 295.989C353.353 295.663 353.392 295.342 353.44 295.026C350.941 281.237 350.563 251.593 350.315 246.402C349.989 239.576 354.1 231.874 359.403 231.621C364.706 231.367 370.462 236.856 372.165 243.111C373.289 247.238 368.944 269.201 364.236 285.118C363.245 288.469 363.089 291.993 363.588 295.451C363.933 297.843 364.036 300.307 363.866 302.191C363.613 304.995 360.472 316.414 357.527 326.191C357.442 326.474 357.216 326.698 356.927 326.761C355.402 327.096 353.812 326.957 352.403 326.099Z" fill="#0B4870"/>
<path d="M366 225.18C365.179 222.877 364.933 220.412 365.278 217.991C366.078 212.37 367.476 201.782 367.347 197.287C367.278 194.884 365.31 192.982 362.906 192.982H360.554C359.658 195.059 357.76 196.664 354.81 196.664C351.864 196.664 349.966 195.059 349.069 192.982H346.861C349.261 198.12 348.398 204.898 344.27 208.853C345.037 211.565 345.682 214.294 346.165 216.506C346.819 219.502 346.53 222.624 345.35 225.455C343.323 230.32 341.717 238.121 342.195 241.212C358.878 245.941 370.415 237.572 370.415 237.572L366 225.18Z" fill="#357AB8"/>
<path d="M352.238 194.075L359.433 193.319L357.156 185.446L352.503 186.022L352.238 194.075Z" fill="#FAB9AF"/>
<path d="M352.503 186.022L357.157 185.446L357.868 187.904C356.826 189.079 355.488 191.616 353.794 191.616C353.257 191.616 352.767 191.464 352.327 191.185L352.503 186.022Z" fill="#FA968C" fill-opacity="0.51"/>
<path d="M352.342 189.828C353.922 189.828 355.631 189.037 357.985 186.981C359.336 185.8 360.338 183.741 360.338 182.35V174.657H348.493C348.493 174.657 347.604 178.742 348.467 182.796C349.115 185.835 351.1 189.828 352.342 189.828Z" fill="#FAB9AF"/>
<path d="M358.33 180.894C358.33 182.395 359.049 183.612 359.935 183.612C360.821 183.612 361.799 181.645 361.799 180.143C361.799 178.642 360.822 178.176 359.935 178.176C359.048 178.176 358.33 179.393 358.33 180.894Z" fill="#FAB9AF"/>
<path d="M361.798 175.588C361.798 173.186 359.85 171.238 357.448 171.239L353.45 171.241C352.307 171.241 351.198 170.942 350.225 170.39C348.814 169.59 347.031 169.856 346.069 171.162C345.029 172.573 344.579 174.462 347.217 176.212C348.528 177.082 350.445 176.118 351.723 176.536C351.802 176.533 351.872 176.52 351.954 176.52H355.478C356.703 176.52 357.639 177.521 357.675 178.745C357.697 179.519 358.332 180.14 359.112 180.14H359.269L359.833 178.332L361.8 180.984V175.588H361.798Z" fill="#0B4870"/>
<path d="M339.293 229.178C339.293 229.178 343.411 228.506 344.032 229.694C344.654 230.883 344.853 231.795 343.157 232.764C341.461 233.734 338.671 234.256 336.936 234.234C335.201 234.212 332.308 232.948 332.088 232.608C331.286 231.371 334.425 231.74 335.954 231.845C337.483 231.95 339.22 231.916 339.062 231.166C338.904 230.416 335.961 230.436 335.497 229.636C335.032 228.838 339.293 229.178 339.293 229.178Z" fill="#FAB9AF"/>
<path d="M349.376 174.521C349.773 176.279 349.187 177.24 354.948 179.983C360.709 182.726 362.533 181.554 364.332 184.507C364.332 184.507 363.545 179.615 360.363 177.935C357.181 176.256 351.663 175.158 349.893 171.27C349.894 171.271 349.105 173.32 349.376 174.521Z" fill="#0B4870"/>
<path d="M367.865 195.398C368.791 196.624 369.497 197.694 370.23 198.878C370.952 200.038 371.644 201.216 372.282 202.432C373.541 204.872 374.669 207.413 375.549 210.131C376.395 212.854 377.03 215.768 376.968 218.942C376.886 220.538 376.703 222.174 376.148 223.797L375.719 225.003C375.555 225.399 375.327 225.778 375.127 226.16C374.908 226.534 374.733 226.932 374.466 227.274L373.672 228.298C372.585 229.631 371.252 230.674 369.889 231.494C368.518 232.276 367.102 232.906 365.697 233.292L364.644 233.614C364.294 233.712 363.945 233.759 363.596 233.833C362.899 233.964 362.203 234.106 361.511 234.22L359.45 234.393L358.425 234.474L357.412 234.481C352.011 234.561 346.837 233.785 341.782 232.69C341.078 232.537 340.63 231.843 340.783 231.138C340.917 230.52 341.469 230.099 342.078 230.109L342.103 230.11C347.155 230.19 352.196 230.125 356.955 229.365L357.846 229.228L358.709 229.025L360.425 228.63L362.051 228.114C362.317 228.023 362.598 227.956 362.849 227.848L363.589 227.511C365.579 226.651 367.187 225.444 368.038 224.026C368.893 222.617 369.227 220.981 369.094 219.046C368.94 217.116 368.352 215.016 367.528 212.94C366.718 210.853 365.66 208.774 364.466 206.754C363.871 205.742 363.265 204.728 362.61 203.746C361.975 202.784 361.251 201.743 360.654 200.93L360.578 200.827C359.092 198.805 359.527 195.961 361.549 194.475C363.554 193.001 366.369 193.419 367.865 195.398Z" fill="#FAB9AF"/>
<path d="M350.484 174.849C350.484 174.849 350.265 180.769 345.092 183.613C345.092 183.613 347.372 179.138 347.217 176.213C347.062 173.286 350.826 172.827 350.484 174.849Z" fill="#0B4870"/>
<path d="M378.739 332.369C379.081 331.975 379.088 331.394 378.752 330.995C378.477 330.669 377.747 329.775 377.197 329.104C376.958 328.812 376.509 328.88 376.347 329.22C374.508 333.066 371.437 336.066 367.433 336.617C366.134 337.495 365.306 339.478 365.576 340.25C365.639 340.431 367.416 340.456 369.285 339.387C377.58 334.639 378.739 332.369 378.739 332.369Z" fill="#0B4870"/>
<path d="M337.533 195.789C337.509 200.917 334.97 204.393 330.395 206.468C327.425 207.815 327.224 208.763 329.538 211.143C332.723 214.42 335.872 217.733 339.101 220.966C340.785 222.652 340.573 224.051 338.909 225.596C335.379 228.873 331.899 232.205 328.44 235.558C326.183 237.746 326.27 238.138 329.04 239.593C334.693 242.563 336.895 248.286 334.526 253.849C331.998 259.784 325.63 262.82 319.785 260.776C316.665 259.685 314.394 257.59 313.113 254.481C312.002 251.786 311.431 251.686 309.318 253.705C305.715 257.148 302.069 260.547 298.514 264.039C296.84 265.684 295.586 265.656 293.967 263.851C290.81 260.33 287.387 257.05 284.175 253.577C281.566 250.755 281.893 249.693 285.517 248.396C290.744 246.525 294.449 240.558 293.406 235.69C292.206 230.09 287.263 225.941 281.784 226.398C276.836 226.811 273.345 229.558 271.395 234.184C269.964 237.579 269.143 237.741 266.554 235.07C263.085 231.492 259.704 227.828 256.199 224.287C254.716 222.789 254.932 221.661 256.366 220.321C260.067 216.861 263.715 213.343 267.357 209.821C269.556 207.695 269.49 207.374 266.806 205.995C261.555 203.297 259.196 198.189 260.697 192.768C262.142 187.551 267.283 183.554 272.564 183.913C277.236 184.231 280.658 186.638 282.508 191.048C283.489 193.386 284.181 193.614 286.053 191.855C289.566 188.555 292.978 185.149 296.461 181.817C298.839 179.542 299.438 179.545 301.745 181.927C304.923 185.208 308.025 188.562 311.204 191.843C313.207 193.91 314.097 193.756 315.384 191.092C317.036 187.671 319.617 185.382 323.297 184.446C330.742 182.555 337.558 188.009 337.533 195.789Z" fill="#357AB8"/>
<path d="M308.93 195.006C308.93 195.006 313.06 194.413 313.297 193.093C313.534 191.773 313.451 190.843 311.542 190.426C309.633 190.009 306.815 190.347 305.166 190.888C303.517 191.429 301.136 193.502 301.028 193.892C300.633 195.313 303.518 194.02 304.945 193.461C306.372 192.903 308.039 192.414 308.114 193.177C308.188 193.94 305.375 194.803 305.171 195.705C304.967 196.607 308.93 195.006 308.93 195.006Z" fill="#FAB9AF"/>
<path d="M219.823 285.823C219.87 282.716 220.073 279.602 219.916 276.505C219.791 274.052 220.833 273.299 223.074 273.357C228.785 273.505 234.498 273.592 240.211 273.676C243.891 273.73 244.481 272.889 243.307 269.379C241.15 262.925 243.08 256.438 248.252 252.759C253.25 249.204 260.224 249.399 265.071 253.228C270.024 257.141 271.608 263.796 269.083 270.082C267.886 273.062 268.548 274.119 271.78 274.192C277.392 274.319 283.005 274.357 288.617 274.483C292.181 274.563 292.833 275.261 292.777 278.751C292.68 284.764 292.542 290.777 292.463 296.79C292.424 299.755 293.002 300.165 295.817 299.09C301.353 296.976 306.575 297.964 310.612 301.916C314.572 305.793 315.534 311.058 313.836 316.436C312.121 321.867 308.308 325.126 302.638 326.093C300.081 326.529 297.676 325.952 295.313 324.999C292.584 323.897 291.929 324.315 291.84 327.291C291.654 333.502 291.44 339.715 291.416 345.927C291.406 348.669 290.343 349.653 287.622 349.547C281.614 349.312 275.597 349.323 269.585 349.171C265.861 349.077 265.124 347.801 266.753 344.487C271.359 335.122 266.204 324.846 256.39 323.829C246.402 322.795 238.939 332.889 242.514 342.614C242.824 343.457 243.309 344.238 243.598 345.087C244.298 347.141 243.636 348.612 241.379 348.614C234.564 348.619 227.748 348.486 220.935 348.323C219.253 348.283 218.605 347.29 218.66 345.508C218.862 338.997 218.821 332.477 219.061 325.968C219.155 323.42 218.21 322.729 215.889 323.287C213.931 323.758 211.915 323.709 209.955 323.451C202.389 322.457 198.226 316.862 199.05 308.951C199.764 302.095 205.525 297.411 212.68 297.869C219.602 298.313 219.602 298.313 219.716 291.232C219.745 289.428 219.771 287.624 219.799 285.82C219.807 285.823 219.815 285.823 219.823 285.823Z" fill="#0B4870"/>
<path d="M146.636 211.52C146.68 208.614 146.712 205.708 146.772 202.803C146.847 199.139 147.495 198.5 151.256 198.571C156.565 198.671 161.873 198.846 167.182 198.963C171.223 199.051 171.853 198.182 170.596 194.436C168.656 188.657 169.786 183.466 174.123 179.256C178.23 175.269 183.285 174.394 188.614 176.363C194.124 178.399 196.967 182.651 197.623 188.42C197.89 190.769 197.337 192.996 196.523 195.171C195.274 198.508 195.93 199.472 199.577 199.536C205.088 199.632 210.6 199.672 216.11 199.797C219.644 199.877 220.102 200.382 220.048 203.872C219.955 209.884 219.818 215.895 219.73 221.908C219.686 224.907 220.295 225.407 223.051 224.349C225.774 223.303 228.535 223.092 231.318 223.692C239.123 225.377 243.61 233.382 241.288 241.317C238.948 249.314 230.916 253.394 223.251 250.479C219.585 249.084 219.226 249.338 219.154 253.379C219.058 258.789 218.87 264.201 218.912 269.61C218.93 271.947 218.702 272.685 215.849 272.395C210.087 271.809 204.241 271.977 198.43 271.996C195.977 272.004 195.159 271.596 196.256 268.934C198.912 262.491 196.851 255.268 191.492 251.124C186.269 247.086 178.925 246.988 173.569 250.886C168.125 254.848 165.915 261.959 168.355 268.566C169.246 270.978 168.711 271.529 166.289 271.524C159.885 271.511 153.475 270.819 147.079 271.526C145.268 271.726 145.685 270.523 145.696 269.633C145.763 263.821 145.881 258.01 145.972 252.198C146.04 247.895 145.844 247.784 141.882 249.077C137.022 250.662 132.533 249.871 128.69 246.477C124.602 242.867 123.095 238.207 124.134 232.899C125.853 224.121 134.123 219.532 142.331 222.644C146.156 224.094 146.392 223.946 146.472 219.939C146.528 217.134 146.56 214.328 146.603 211.522C146.615 211.52 146.626 211.52 146.636 211.52Z" fill="#0B4870"/>
<path d="M146.666 285.653C146.712 282.646 146.917 279.63 146.757 276.633C146.61 273.901 147.727 273.202 150.29 273.316C155.796 273.561 161.314 273.565 166.828 273.623C170.73 273.664 172.139 271.688 170.759 268.07C168.73 262.747 169.685 257.944 173.532 253.892C177.184 250.044 181.83 249.075 186.799 250.777C191.95 252.541 194.557 256.508 195.35 261.789C195.675 263.951 195.171 265.969 194.43 267.955C192.772 272.4 193.915 274.045 198.736 274.114C204.149 274.191 209.563 274.342 214.976 274.302C217.209 274.286 217.94 275.072 217.847 277.305C217.626 282.612 217.543 287.93 217.587 293.242C217.603 295.167 216.893 295.652 215.131 295.565C212.94 295.457 210.735 295.117 208.541 295.626C201.409 297.279 196.108 304.453 196.885 311.417C197.902 320.528 203.136 325.503 211.747 325.544C217.007 325.57 217.008 325.57 216.926 330.776C216.853 335.387 216.718 339.999 216.735 344.61C216.742 346.436 216.043 347.115 214.251 347.07C208.137 346.916 202.022 346.81 195.907 346.742C193.338 346.713 193.142 345.803 194.19 343.599C198.376 334.795 194.796 325.088 186.337 322.242C180.496 320.277 175.003 321.351 170.887 325.894C166.688 330.529 165.793 336.228 168.04 342.182C169.607 346.333 169.681 346.323 165.371 346.273C160.058 346.212 154.742 346.009 149.433 346.119C146.718 346.175 145.718 345.367 145.846 342.536C146.118 336.53 146.085 330.509 146.145 324.494C146.178 321.2 144.686 320.022 141.654 321.176C136.068 323.302 131.184 322.393 127.167 317.96C123.416 313.82 122.962 307.908 125.726 302.5C128.237 297.585 134.851 295.182 140.508 297.142C141.263 297.404 141.974 297.813 142.741 298.019C145.065 298.643 146.438 297.671 146.52 295.277C146.629 292.071 146.633 288.862 146.682 285.654C146.676 285.653 146.671 285.653 146.666 285.653Z" fill="#357AB8"/>
</svg>
