<svg width="655" height="642" viewBox="0 0 655 642" fill="none" xmlns="http://www.w3.org/2000/svg">
<rect width="655" height="642" fill="white"/>
<path d="M52.4466 539.396C93.5466 627.196 190.047 667.596 283.647 622.896C334.847 598.496 374.547 547.896 426.547 524.996C484.947 499.196 550.047 478.696 596.147 425.096C645.247 367.996 665.447 282.596 649.747 209.396C630.547 120.296 550.747 99.596 483.247 63.396C206.347 -85.004 -100.953 22.096 31.9466 437.996C43.0466 472.796 38.8466 510.296 52.4466 539.396Z" fill="#F7F7F7" fill-opacity="0.7"/>
<path d="M363.147 429.696H254.747C249.647 429.696 245.547 425.596 245.547 420.496C245.547 415.396 249.647 411.296 254.747 411.296H363.147C368.247 411.296 372.347 415.396 372.347 420.496C372.347 425.696 368.247 429.696 363.147 429.696Z" fill="#D3D3D3"/>
<path d="M286.454 536.057V545.257H379.754V536.057H286.454Z" fill="#215D8E"/>
<path d="M295.147 543.396C295.947 548.196 292.747 552.696 287.947 553.496C283.147 554.296 278.647 551.096 277.847 546.296C277.047 541.496 280.247 536.996 285.047 536.196C289.847 535.396 294.347 538.596 295.147 543.396Z" fill="#215D8E"/>
<path d="M337.247 423.696H328.047V539.796H337.247V423.696Z" fill="#215D8E"/>
<path d="M388.447 543.396C389.247 548.196 386.047 552.696 381.247 553.496C376.447 554.296 371.947 551.096 371.147 546.296C370.347 541.496 373.547 536.996 378.347 536.196C383.147 535.396 387.647 538.596 388.447 543.396Z" fill="#215D8E"/>
<path d="M391.647 429.696H289.147C282.147 429.696 277.147 422.896 279.147 415.996L328.047 247.396C329.347 242.896 333.447 239.796 338.047 239.796H440.447C447.447 239.796 452.447 246.596 450.447 253.496L401.647 422.096C400.347 426.596 396.247 429.696 391.647 429.696Z" fill="#D3D3D3"/>
<path d="M377.547 429.696H288.347C281.347 429.696 276.347 422.896 278.347 415.996L327.247 247.396C328.547 242.896 332.647 239.796 337.247 239.796H426.447C433.447 239.796 438.447 246.596 436.447 253.496L387.547 422.096C386.247 426.596 382.147 429.696 377.547 429.696Z" fill="#F2F2F2"/>
<path d="M391.547 429.696H283.147C278.047 429.696 273.947 425.596 273.947 420.496C273.947 415.396 278.047 411.296 283.147 411.296H391.547C396.647 411.296 400.747 415.396 400.747 420.496C400.747 425.696 396.647 429.696 391.547 429.696Z" fill="#D3D3D3"/>
<path d="M303.846 286.596L281.646 350.496L286.846 363.096L316.746 357.396L325.246 288.996L303.846 286.596Z" fill="#FFE3CA"/>
<path d="M317.247 255.496C317.247 255.496 299.747 265.396 295.847 298.196L319.047 311.996L317.247 255.496Z" fill="#326FA7"/>
<path d="M347.246 242.896L317.246 255.496L293.646 360.696L372.746 391.896L414.846 271.896C414.846 271.896 407.946 246.796 368.446 240.496L347.246 242.896Z" fill="#326FA7"/>
<path d="M427.147 366.496C427.047 365.096 426.247 356.796 425.947 355.496L412.947 272.096C410.447 260.696 397.547 254.896 387.347 260.596C379.847 264.796 376.447 273.796 379.347 281.796L394.847 353.396L427.147 366.496Z" fill="#FFE3CA"/>
<path d="M409.447 348.596L321.247 341.696L316.847 357.396L401.747 386.096C414.847 390.496 428.147 380.196 427.147 366.496C426.447 356.996 418.947 349.396 409.447 348.596Z" fill="#FFE3CA"/>
<path d="M404.047 257.996C404.047 257.996 415.347 262.896 420.147 291.996L380.447 304.196C380.447 304.196 354.447 275.096 382.247 255.696L404.047 257.996Z" fill="#326FA7"/>
<path d="M293.546 358.296C296.746 366.996 313.146 367.296 321.746 364.096C330.446 360.896 339.346 355.896 336.046 347.196C332.846 338.496 318.346 333.396 308.946 335.496C297.446 338.196 290.246 349.696 293.546 358.296Z" fill="#FFE3CA"/>
<path d="M341.547 370.096L278.547 361.996L279.447 354.896L342.447 362.996C344.447 363.296 345.747 364.996 345.547 366.996C345.247 368.996 343.447 370.396 341.547 370.096Z" fill="#1B3557"/>
<path d="M286.847 363.096L203.447 352.396C198.647 351.796 194.847 347.996 194.147 343.196L185.347 282.696C184.547 277.296 189.147 272.696 194.447 273.396L271.047 283.196C274.247 283.596 276.747 286.096 277.147 289.296L286.847 363.096Z" fill="#1B3557"/>
<path d="M240.547 321.496C239.947 325.896 236.047 328.896 231.647 328.396C227.247 327.796 224.247 323.896 224.747 319.496C225.347 315.096 229.247 312.096 233.647 312.596C238.047 313.196 241.147 317.196 240.547 321.496Z" fill="white"/>
<path d="M187.147 522.896L165.447 531.896L151.747 532.896C145.447 533.396 140.247 537.896 138.847 544.096L138.247 546.996L212.447 556.296L213.947 526.396L187.147 522.896Z" fill="#1B3557"/>
<path d="M214.046 526.396L221.346 493.796L194.446 490.196L187.146 522.896L214.046 526.396Z" fill="#FFE3CA"/>
<path d="M372.647 391.896C372.647 391.896 370.547 409.896 338.247 412.296H260.647L224.047 514.396L185.547 508.196L224.047 358.296L312.247 368.096L372.647 391.896Z" fill="#0B4870"/>
<path d="M124.946 464.296L101.746 460.896L89.4465 454.696C83.8465 451.896 76.9465 453.096 72.6465 457.696L70.6465 459.896L129.546 505.996L146.146 481.096L124.946 464.296Z" fill="#1B3557"/>
<path d="M146.347 481.096L166.547 455.396L145.347 438.396L124.947 464.296L146.347 481.096Z" fill="#FFE3CA"/>
<path d="M293.647 360.696L233.847 342.796C231.347 341.996 228.847 341.196 226.447 340.196C221.247 338.196 208.247 335.496 198.147 350.896C185.147 370.696 133.347 445.496 133.347 445.496L164.947 468.796L233.947 380.796C239.747 372.796 249.047 368.096 258.847 368.096L312.247 367.996L293.647 360.696Z" fill="#0B4870"/>
<path d="M370.547 210.096C371.647 208.096 390.147 175.096 373.147 166.796C373.147 166.796 370.947 149.396 351.447 151.296C331.947 153.196 337.247 158.896 324.847 156.096C312.447 153.296 300.747 159.696 301.647 169.996C302.547 180.396 310.547 184.796 324.847 182.296C339.147 179.796 350.447 181.696 350.447 181.696L362.347 185.196L370.547 210.096Z" fill="#1B3557"/>
<path d="M372.947 245.796L371.447 203.896L342.347 214.196L344.647 247.796C345.147 255.596 349.547 261.696 357.347 261.096L359.747 260.896C367.547 260.396 373.447 253.696 372.947 245.796Z" fill="#FFE3CA"/>
<path d="M368.947 209.696C368.947 209.696 374.447 244.696 344.547 246.696L343.247 230.096L368.947 209.696Z" fill="#FCD2B1"/>
<path d="M344.247 238.896H345.247C360.147 238.196 371.647 225.596 370.947 210.696L369.547 180.296C369.347 176.396 366.047 173.496 362.247 173.596L326.747 175.296C319.847 175.596 314.547 181.496 314.847 188.396L316.047 213.396C316.747 228.096 329.347 239.596 344.247 238.896Z" fill="#FFE3CA"/>
<path d="M364.247 201.496C364.447 206.496 368.747 210.396 373.747 210.196C378.747 209.996 382.647 205.696 382.447 200.696C382.247 195.696 377.947 191.796 372.947 191.996C367.847 192.196 363.947 196.396 364.247 201.496Z" fill="#FFE3CA"/>
<path d="M359.847 177.096L361.647 211.096C361.847 214.196 360.547 217.296 358.047 218.996C356.447 220.096 355.147 221.596 352.347 221.196C344.247 219.996 347.947 213.996 331.547 214.896C316.547 215.696 317.647 224.096 317.647 224.096C317.647 224.096 320.547 239.996 341.147 240.696C361.747 241.496 372.047 228.396 369.647 211.096L367.647 175.196L359.847 177.096Z" fill="#1B3557"/>
<path d="M315.847 182.796C315.847 182.796 325.447 184.296 339.347 180.896C353.247 177.496 364.247 188.696 364.247 188.696C364.247 188.696 367.247 193.896 367.947 193.696C368.647 193.596 372.947 191.896 372.947 191.896L372.747 176.196L362.547 168.296L334.347 167.096L317.647 170.796L315.847 182.796Z" fill="#1B3557"/>
</svg>
